<?xml version="1.0" encoding="utf-8"?>
<!-- Generator: Adobe Illustrator 27.3.1, SVG Export Plug-In . SVG Version: 6.00 Build 0)  -->
<svg version="1.1" id="Calque_1" xmlns="http://www.w3.org/2000/svg" xmlns:xlink="http://www.w3.org/1999/xlink" x="0px" y="0px"
	 viewBox="0 0 595.28 841.89" style="enable-background:new 0 0 595.28 841.89;" xml:space="preserve">
<style type="text/css">
	.st0{fill:#020203;}
	.st1{fill:#FFFFFF;}
</style>
<g>
	<path class="st0" d="M202.66,385.82c0,5.87-1.03,11.27-3.09,16.2c-2.02,4.93-4.82,9.19-8.4,12.77c-3.58,3.54-7.84,6.32-12.77,8.33
		c-4.93,2.02-10.28,3.02-16.06,3.02h-47.18c-1.25,0-2.42-0.22-3.5-0.67c-1.08-0.45-2.02-1.05-2.82-1.81
		c-0.76-0.81-1.37-1.75-1.81-2.82c-0.45-1.08-0.67-2.24-0.67-3.5v-78.77c0-1.21,0.22-2.35,0.67-3.43s1.05-2.02,1.81-2.82
		c0.81-0.81,1.75-1.43,2.82-1.88c1.08-0.45,2.24-0.67,3.5-0.67h47.18c5.78,0,11.13,1.01,16.06,3.02c4.93,2.02,9.19,4.82,12.77,8.4
		c3.58,3.54,6.38,7.8,8.4,12.77c2.06,4.93,3.09,10.31,3.09,16.13V385.82z M185.18,370.09c0-3.41-0.56-6.52-1.68-9.34
		c-1.08-2.82-2.62-5.22-4.64-7.19c-2.02-2.02-4.44-3.56-7.26-4.64c-2.78-1.12-5.87-1.68-9.28-1.68h-38.51v61.43h38.51
		c3.41,0,6.5-0.54,9.28-1.61c2.82-1.12,5.24-2.67,7.26-4.64c2.02-2.02,3.56-4.41,4.64-7.19c1.12-2.82,1.68-5.96,1.68-9.41V370.09z"
		/>
	<path class="st0" d="M292.45,402.09c0,2.42-0.43,5.04-1.28,7.86c-0.85,2.78-2.24,5.38-4.17,7.8c-1.88,2.37-4.37,4.37-7.46,5.98
		c-3.05,1.61-6.77,2.42-11.16,2.42h-31.52c-2.42,0-5.04-0.43-7.86-1.28c-2.78-0.85-5.38-2.22-7.8-4.1
		c-2.37-1.93-4.37-4.41-5.98-7.46c-1.61-3.09-2.42-6.83-2.42-11.22c0-2.42,0.43-5.04,1.28-7.86s2.22-5.42,4.1-7.8
		c1.93-2.42,4.41-4.44,7.46-6.05c3.09-1.61,6.83-2.42,11.22-2.42h31.52v16.67h-31.52c-2.37,0-4.21,0.74-5.51,2.22
		c-1.3,1.43-1.95,3.23-1.95,5.38c0,2.29,0.74,4.08,2.22,5.38c1.52,1.25,3.32,1.88,5.38,1.88h31.39c2.37,0,4.21-0.72,5.51-2.15
		c1.3-1.43,1.95-3.23,1.95-5.38v-24.4c0-2.29-0.72-4.1-2.15-5.44c-1.39-1.34-3.16-2.02-5.31-2.02h-38.38v-16.6h38.38
		c2.42,0,5.02,0.43,7.8,1.28c2.82,0.85,5.42,2.24,7.8,4.17c2.42,1.88,4.44,4.37,6.05,7.46c1.61,3.05,2.42,6.77,2.42,11.16V402.09z"
		/>
	<path class="st0" d="M394.07,353.49c-1.97,6.14-4.28,12.19-6.92,18.15c-2.64,5.96-5.69,11.65-9.14,17.07
		c-3.41,5.38-7.24,10.37-11.49,14.99c-4.21,4.57-8.89,8.54-14.05,11.9c-5.11,3.32-10.69,5.94-16.74,7.86
		c-6.01,1.88-12.52,2.82-19.56,2.82c-1.21,0-2.35-0.22-3.43-0.67c-1.08-0.45-2.02-1.05-2.82-1.81c-0.81-0.81-1.43-1.73-1.88-2.76
		c-0.45-1.08-0.67-2.22-0.67-3.43v-64.12h17.48v54.64c4.26,0,8.33-0.92,12.23-2.76c3.94-1.84,7.66-4.26,11.16-7.26
		c3.5-3.05,6.72-6.5,9.68-10.35c3-3.85,5.67-7.8,8-11.83c2.33-4.08,4.3-8.07,5.91-11.96c1.66-3.9,2.89-7.39,3.7-10.49H394.07z"/>
	<path class="st0" d="M480.51,433.14c0,3-0.38,5.69-1.14,8.07c-0.76,2.42-1.77,4.53-3.02,6.32c-1.25,1.84-2.71,3.38-4.37,4.64
		c-1.66,1.3-3.41,2.35-5.24,3.16c-1.79,0.81-3.61,1.39-5.44,1.75c-1.84,0.4-3.58,0.6-5.24,0.6h-31.52V440.2h31.52
		c2.33,0,4.08-0.6,5.24-1.81c1.17-1.21,1.75-2.96,1.75-5.24v-79.65h17.48V433.14z M456.04,426.15h-31.52c-2.51,0-5.2-0.43-8.07-1.28
		c-2.82-0.85-5.47-2.24-7.93-4.17c-2.46-1.97-4.5-4.5-6.12-7.6c-1.61-3.14-2.42-6.97-2.42-11.49v-48.12h17.48v48.12
		c0,2.29,0.6,4.03,1.81,5.24c1.21,1.21,3,1.81,5.38,1.81h31.39V426.15z"/>
	<path class="st0" d="M169.26,483.57c0-3.83-0.67-7.35-2.02-10.56c-1.31-3.21-3.14-5.99-5.48-8.33c-2.34-2.31-5.11-4.12-8.33-5.44
		c-3.21-1.32-6.71-1.97-10.48-1.97h-30.77c-0.82,0-1.58,0.15-2.28,0.44s-1.32,0.69-1.84,1.18c-0.5,0.53-0.89,1.14-1.18,1.84
		s-0.44,1.46-0.44,2.28v51.37c0,0.79,0.15,1.53,0.44,2.24s0.69,1.32,1.18,1.84c0.53,0.53,1.14,0.93,1.84,1.23
		c0.7,0.29,1.46,0.44,2.28,0.44h30.77c3.77,0,7.26-0.66,10.48-1.97c3.21-1.32,5.99-3.14,8.33-5.48c2.34-2.31,4.16-5.08,5.48-8.33
		c1.34-3.21,2.02-6.72,2.02-10.52V483.57z M157.87,493.83c0,2.22-0.37,4.25-1.1,6.09c-0.7,1.84-1.71,3.41-3.02,4.69
		c-1.31,1.31-2.89,2.32-4.73,3.02c-1.81,0.73-3.83,1.1-6.05,1.1h-25.12v-40.06h25.12c2.22,0,4.24,0.35,6.05,1.05
		c1.84,0.73,3.42,1.74,4.73,3.02c1.31,1.32,2.32,2.88,3.02,4.69c0.73,1.84,1.1,3.89,1.1,6.14V493.83z"/>
	<path class="st0" d="M232.12,482.96h-35.99v11.48h35.99V482.96z M237.25,457.27h-41.12c-1.58,0-3.3,0.28-5.17,0.83
		c-1.87,0.56-3.61,1.46-5.22,2.72c-1.58,1.29-2.91,2.94-3.99,4.95c-1.05,2.05-1.58,4.54-1.58,7.5v41.12c0,0.79,0.15,1.53,0.44,2.24
		c0.29,0.7,0.69,1.32,1.18,1.84c0.53,0.53,1.14,0.93,1.84,1.23c0.7,0.29,1.46,0.44,2.28,0.44h51.33v-11.4h-45.67v-35.46
		c0-1.49,0.39-2.63,1.18-3.42s1.94-1.18,3.46-1.18h41.03V457.27z"/>
	<path class="st0" d="M308.44,475.77c0-2.25-0.29-4.28-0.88-6.09c-0.56-1.78-1.3-3.36-2.24-4.73c-0.93-1.37-2.03-2.54-3.29-3.51
		c-1.26-0.96-2.56-1.75-3.9-2.37c-1.34-0.61-2.72-1.07-4.12-1.36c-1.37-0.29-2.67-0.44-3.9-0.44h-43.97v11.4h43.97
		c2.19,0,3.89,0.64,5.08,1.93c1.23,1.29,1.84,3.01,1.84,5.17c0,1.05-0.16,2.02-0.48,2.89c-0.32,0.88-0.79,1.64-1.4,2.28
		c-0.58,0.64-1.31,1.14-2.19,1.49c-0.85,0.35-1.8,0.53-2.85,0.53H263.9c-1.84,0-3.83,0.32-5.96,0.96c-2.13,0.67-4.12,1.74-5.96,3.2
		c-1.81,1.46-3.33,3.38-4.56,5.74c-1.2,2.37-1.8,5.26-1.8,8.68c0,3.42,0.6,6.3,1.8,8.64c1.23,2.37,2.75,4.28,4.56,5.74
		c1.84,1.49,3.83,2.56,5.96,3.2c2.13,0.67,4.12,1.01,5.96,1.01h38.79v-11.4H263.9c-2.16,0-3.86-0.66-5.09-1.97
		c-1.2-1.31-1.8-3.05-1.8-5.22c0-2.19,0.6-3.93,1.8-5.22c1.23-1.26,2.92-1.88,5.09-1.88h26.21h0.09c1.23-0.03,2.53-0.2,3.9-0.53
		c1.37-0.29,2.73-0.76,4.08-1.4c1.37-0.64,2.67-1.46,3.9-2.45c1.23-0.96,2.31-2.13,3.24-3.51c0.96-1.37,1.72-2.95,2.28-4.73
		C308.16,480.03,308.44,478.02,308.44,475.77z"/>
	<path class="st0" d="M329.39,457.27h-11.4v62.86h11.4V457.27z"/>
	<path class="st0" d="M404.74,463.01c0-0.82-0.15-1.58-0.44-2.28s-0.7-1.32-1.23-1.84c-0.5-0.5-1.1-0.89-1.8-1.18
		s-1.46-0.44-2.28-0.44h-41.12c-1.05,0-2.19,0.12-3.42,0.35c-1.2,0.26-2.4,0.66-3.59,1.18c-1.17,0.53-2.29,1.2-3.38,2.02
		c-1.08,0.85-2.05,1.86-2.89,3.02c-0.82,1.2-1.48,2.57-1.97,4.12c-0.5,1.58-0.75,3.35-0.75,5.3v30.86c0,1.05,0.12,2.18,0.35,3.38
		c0.26,1.23,0.66,2.43,1.18,3.59c0.53,1.2,1.21,2.34,2.06,3.42c0.85,1.08,1.86,2.03,3.02,2.85c1.2,0.85,2.57,1.52,4.12,2.02
		c1.55,0.5,3.3,0.75,5.26,0.75h46.33v-11.4h-46.33c-1.49,0-2.63-0.39-3.42-1.18c-0.79-0.79-1.18-1.96-1.18-3.51v-30.77
		c0-1.46,0.39-2.6,1.18-3.42c0.82-0.79,1.96-1.18,3.42-1.18h35.46v14.29h-30.33v11.48H399c0.82,0,1.58-0.16,2.28-0.48
		c0.7-0.29,1.3-0.7,1.8-1.23c0.53-0.53,0.94-1.14,1.23-1.84c0.29-0.67,0.44-1.4,0.44-2.19V463.01z"/>
	<path class="st0" d="M479.43,462.14c0-0.82-0.16-1.58-0.48-2.28c-0.29-0.7-0.7-1.32-1.23-1.84c-0.5-0.5-1.1-0.89-1.8-1.18
		c-0.7-0.29-1.45-0.44-2.24-0.44c-0.7,0-1.42,0.13-2.15,0.39c-0.7,0.26-1.33,0.69-1.89,1.27l-41.64,43.48v-44.27h-11.4v57.99
		c0,1.17,0.32,2.22,0.96,3.16c0.67,0.96,1.52,1.68,2.54,2.15c1.08,0.44,2.19,0.54,3.33,0.31c1.14-0.2,2.12-0.73,2.94-1.58
		l41.64-43.44v44.27h11.4V462.14z"/>
	<path class="st0" d="M416.63,440.19h19.15v17.48h-19.15V440.19z"/>
	<path class="st0" d="M105.9,440.19h299.24v9.58H105.9V440.19z"/>
</g>
<g>
	<path class="st1" d="M212.5,377.08c0,5.87-1.03,11.27-3.09,16.2c-2.02,4.93-4.82,9.19-8.4,12.77c-3.58,3.54-7.84,6.32-12.77,8.33
		c-4.93,2.02-10.28,3.02-16.06,3.02h-47.18c-1.25,0-2.42-0.22-3.5-0.67c-1.08-0.45-2.02-1.05-2.82-1.81
		c-0.76-0.81-1.37-1.75-1.81-2.82c-0.45-1.08-0.67-2.24-0.67-3.5v-78.77c0-1.21,0.22-2.35,0.67-3.43s1.05-2.02,1.81-2.82
		c0.81-0.81,1.75-1.43,2.82-1.88c1.08-0.45,2.24-0.67,3.5-0.67h47.18c5.78,0,11.13,1.01,16.06,3.02c4.93,2.02,9.19,4.82,12.77,8.4
		c3.58,3.54,6.39,7.8,8.4,12.77c2.06,4.93,3.09,10.31,3.09,16.13V377.08z M195.02,361.35c0-3.41-0.56-6.52-1.68-9.34
		c-1.08-2.82-2.62-5.22-4.64-7.19c-2.02-2.02-4.44-3.56-7.26-4.64c-2.78-1.12-5.87-1.68-9.28-1.68h-38.51v61.43h38.51
		c3.41,0,6.5-0.54,9.28-1.61c2.82-1.12,5.24-2.67,7.26-4.64c2.02-2.02,3.56-4.41,4.64-7.19c1.12-2.82,1.68-5.96,1.68-9.41V361.35z"
		/>
	<path class="st1" d="M302.29,393.35c0,2.42-0.43,5.04-1.28,7.86c-0.85,2.78-2.24,5.38-4.17,7.8c-1.88,2.37-4.37,4.37-7.46,5.98
		c-3.05,1.61-6.77,2.42-11.16,2.42h-31.52c-2.42,0-5.04-0.43-7.86-1.28c-2.78-0.85-5.38-2.22-7.8-4.1
		c-2.37-1.93-4.37-4.41-5.98-7.46c-1.61-3.09-2.42-6.83-2.42-11.22c0-2.42,0.43-5.04,1.28-7.86c0.85-2.82,2.22-5.42,4.1-7.8
		c1.93-2.42,4.41-4.44,7.46-6.05c3.09-1.61,6.83-2.42,11.22-2.42h31.52v16.67h-31.52c-2.37,0-4.21,0.74-5.51,2.22
		c-1.3,1.43-1.95,3.23-1.95,5.38c0,2.29,0.74,4.08,2.22,5.38c1.52,1.25,3.32,1.88,5.38,1.88h31.39c2.37,0,4.21-0.72,5.51-2.15
		c1.3-1.43,1.95-3.23,1.95-5.38v-24.4c0-2.29-0.72-4.1-2.15-5.44c-1.39-1.34-3.16-2.02-5.31-2.02h-38.38v-16.6h38.38
		c2.42,0,5.02,0.43,7.8,1.28c2.82,0.85,5.42,2.24,7.8,4.17c2.42,1.88,4.44,4.37,6.05,7.46c1.61,3.05,2.42,6.77,2.42,11.16V393.35z"
		/>
	<path class="st1" d="M403.91,344.75c-1.97,6.14-4.28,12.19-6.92,18.15c-2.64,5.96-5.69,11.65-9.14,17.07
		c-3.41,5.38-7.24,10.37-11.49,14.99c-4.21,4.57-8.89,8.54-14.05,11.9c-5.11,3.32-10.69,5.94-16.74,7.86
		c-6.01,1.88-12.52,2.82-19.56,2.82c-1.21,0-2.35-0.22-3.43-0.67c-1.08-0.45-2.02-1.05-2.82-1.81c-0.81-0.81-1.43-1.73-1.88-2.76
		c-0.45-1.08-0.67-2.22-0.67-3.43v-64.12h17.48v54.64c4.26,0,8.33-0.92,12.23-2.76c3.94-1.84,7.66-4.26,11.16-7.26
		c3.5-3.05,6.72-6.5,9.68-10.35c3-3.85,5.67-7.8,8-11.83c2.33-4.08,4.3-8.07,5.91-11.96c1.66-3.9,2.89-7.39,3.7-10.49H403.91z"/>
	<path class="st1" d="M490.35,424.4c0,3-0.38,5.69-1.14,8.07c-0.76,2.42-1.77,4.53-3.02,6.32c-1.25,1.84-2.71,3.38-4.37,4.64
		c-1.66,1.3-3.41,2.35-5.24,3.16c-1.79,0.81-3.61,1.39-5.44,1.75c-1.84,0.4-3.58,0.6-5.24,0.6h-31.52v-17.47h31.52
		c2.33,0,4.08-0.6,5.24-1.81c1.17-1.21,1.75-2.96,1.75-5.24v-79.65h17.48V424.4z M465.88,417.41h-31.52c-2.51,0-5.2-0.43-8.07-1.28
		c-2.82-0.85-5.47-2.24-7.93-4.17c-2.46-1.97-4.5-4.5-6.12-7.6c-1.61-3.14-2.42-6.97-2.42-11.49v-48.12h17.48v48.12
		c0,2.29,0.6,4.03,1.81,5.24c1.21,1.21,3,1.81,5.38,1.81h31.39V417.41z"/>
	<path class="st1" d="M179.1,474.83c0-3.83-0.67-7.35-2.02-10.56c-1.31-3.21-3.14-5.99-5.48-8.33c-2.34-2.31-5.11-4.12-8.33-5.44
		c-3.21-1.32-6.71-1.97-10.48-1.97h-30.77c-0.82,0-1.58,0.15-2.28,0.44s-1.32,0.69-1.84,1.18c-0.5,0.53-0.89,1.14-1.18,1.84
		c-0.29,0.7-0.44,1.46-0.44,2.28v51.37c0,0.79,0.15,1.53,0.44,2.24c0.29,0.7,0.69,1.32,1.18,1.84c0.53,0.53,1.14,0.93,1.84,1.23
		c0.7,0.29,1.46,0.44,2.28,0.44h30.77c3.77,0,7.26-0.66,10.48-1.97c3.21-1.32,5.99-3.14,8.33-5.48c2.34-2.31,4.16-5.08,5.48-8.33
		c1.34-3.21,2.02-6.72,2.02-10.52V474.83z M167.71,485.09c0,2.22-0.37,4.25-1.1,6.09c-0.7,1.84-1.71,3.41-3.02,4.69
		c-1.31,1.31-2.89,2.32-4.73,3.02c-1.81,0.73-3.83,1.1-6.05,1.1h-25.12v-40.06h25.12c2.22,0,4.24,0.35,6.05,1.05
		c1.84,0.73,3.42,1.74,4.73,3.02c1.31,1.32,2.32,2.88,3.02,4.69c0.73,1.84,1.1,3.89,1.1,6.14V485.09z"/>
	<path class="st1" d="M241.96,474.22h-35.99v11.48h35.99V474.22z M247.09,448.53h-41.12c-1.58,0-3.3,0.28-5.17,0.83
		s-3.61,1.46-5.22,2.72c-1.58,1.29-2.91,2.94-3.99,4.95c-1.05,2.05-1.58,4.54-1.58,7.5v41.12c0,0.79,0.15,1.53,0.44,2.24
		c0.29,0.7,0.69,1.32,1.18,1.84c0.53,0.53,1.14,0.93,1.84,1.23c0.7,0.29,1.46,0.44,2.28,0.44h51.33v-11.4h-45.67v-35.46
		c0-1.49,0.39-2.63,1.18-3.42s1.94-1.18,3.46-1.18h41.03V448.53z"/>
	<path class="st1" d="M318.27,467.03c0-2.25-0.29-4.28-0.88-6.09c-0.56-1.78-1.3-3.36-2.24-4.73c-0.93-1.37-2.03-2.54-3.29-3.51
		c-1.26-0.96-2.56-1.75-3.9-2.37c-1.34-0.61-2.72-1.07-4.12-1.36c-1.37-0.29-2.67-0.44-3.9-0.44h-43.97v11.4h43.97
		c2.19,0,3.89,0.64,5.08,1.93c1.23,1.29,1.84,3.01,1.84,5.17c0,1.05-0.16,2.02-0.48,2.89c-0.32,0.88-0.79,1.64-1.4,2.28
		c-0.58,0.64-1.31,1.14-2.19,1.49c-0.85,0.35-1.8,0.53-2.85,0.53h-26.21c-1.84,0-3.83,0.32-5.96,0.96c-2.13,0.67-4.12,1.74-5.96,3.2
		c-1.81,1.46-3.33,3.38-4.56,5.74c-1.2,2.37-1.8,5.26-1.8,8.68c0,3.42,0.6,6.3,1.8,8.64c1.23,2.37,2.75,4.28,4.56,5.74
		c1.84,1.49,3.83,2.56,5.96,3.2c2.13,0.67,4.12,1.01,5.96,1.01h38.79v-11.4h-38.79c-2.16,0-3.86-0.66-5.09-1.97
		c-1.2-1.31-1.8-3.05-1.8-5.22c0-2.19,0.6-3.93,1.8-5.22c1.23-1.26,2.92-1.88,5.09-1.88h26.21h0.09c1.23-0.03,2.53-0.2,3.9-0.53
		c1.37-0.29,2.73-0.76,4.08-1.4c1.37-0.64,2.67-1.46,3.9-2.45c1.23-0.96,2.31-2.13,3.24-3.51c0.96-1.37,1.72-2.95,2.28-4.73
		C318,471.29,318.27,469.28,318.27,467.03z"/>
	<path class="st1" d="M339.23,448.53h-11.4v62.86h11.4V448.53z"/>
	<path class="st1" d="M414.58,454.27c0-0.82-0.15-1.58-0.44-2.28c-0.29-0.7-0.7-1.32-1.23-1.84c-0.5-0.5-1.1-0.89-1.8-1.18
		s-1.46-0.44-2.28-0.44h-41.12c-1.05,0-2.19,0.12-3.42,0.35c-1.2,0.26-2.4,0.66-3.59,1.18c-1.17,0.53-2.29,1.2-3.38,2.02
		c-1.08,0.85-2.05,1.86-2.89,3.02c-0.82,1.2-1.48,2.57-1.97,4.12c-0.5,1.58-0.75,3.35-0.75,5.3v30.86c0,1.05,0.12,2.18,0.35,3.38
		c0.26,1.23,0.66,2.43,1.18,3.59c0.53,1.2,1.21,2.34,2.06,3.42s1.86,2.03,3.02,2.85c1.2,0.85,2.57,1.52,4.12,2.02
		s3.3,0.75,5.26,0.75h46.33v-11.4h-46.33c-1.49,0-2.63-0.39-3.42-1.18c-0.79-0.79-1.18-1.96-1.18-3.51v-30.77
		c0-1.46,0.39-2.6,1.18-3.42c0.82-0.79,1.96-1.18,3.42-1.18h35.46v14.29h-30.33v11.48h35.99c0.82,0,1.58-0.16,2.28-0.48
		c0.7-0.29,1.3-0.7,1.8-1.23c0.53-0.53,0.94-1.14,1.23-1.84c0.29-0.67,0.44-1.4,0.44-2.19V454.27z"/>
	<path class="st1" d="M489.27,453.4c0-0.82-0.16-1.58-0.48-2.28c-0.29-0.7-0.7-1.32-1.23-1.84c-0.5-0.5-1.1-0.89-1.8-1.18
		c-0.7-0.29-1.45-0.44-2.24-0.44c-0.7,0-1.42,0.13-2.15,0.39c-0.7,0.26-1.33,0.69-1.89,1.27l-41.64,43.48v-44.27h-11.4v57.99
		c0,1.17,0.32,2.22,0.96,3.16c0.67,0.96,1.52,1.68,2.54,2.15c1.08,0.44,2.19,0.54,3.33,0.31c1.14-0.2,2.12-0.73,2.94-1.58
		l41.64-43.44v44.27h11.4V453.4z"/>
	<path class="st1" d="M426.47,431.45h19.15v17.48h-19.15V431.45z"/>
	<path class="st1" d="M115.74,431.45h299.24v9.58H115.74V431.45z"/>
</g>
</svg>
