<?xml version="1.0" encoding="utf-8"?>
<!-- Generator: Adobe Illustrator 27.3.1, SVG Export Plug-In . SVG Version: 6.00 Build 0)  -->
<svg version="1.1" id="Calque_1" xmlns="http://www.w3.org/2000/svg" xmlns:xlink="http://www.w3.org/1999/xlink" x="0px" y="0px"
	 viewBox="0 0 348.77 366.13" style="enable-background:new 0 0 348.77 366.13;" xml:space="preserve">
<style type="text/css">
	.st0{fill:#1B80A2;}
	.st1{fill:#FFFFFF;}
	.st2{fill-rule:evenodd;clip-rule:evenodd;fill:#FFFFFF;}
	.st3{fill-rule:evenodd;clip-rule:evenodd;fill:#1B80A2;}
</style>
<circle class="st0" cx="175.04" cy="174.72" r="147"/>
<g>
	<path class="st1" d="M66.82,120.6v5.68h9.16v5.28h-9.16v6.16h10.36v5.48h-17.2v-28.08h17.2v5.48H66.82z M73.06,109.48l-9.64,4.04
		v-4.72l9.64-4.64V109.48z"/>
	<path class="st1" d="M99.9,116.88c2.21,1.17,3.93,2.82,5.14,4.94c1.21,2.12,1.82,4.57,1.82,7.34c0,2.75-0.61,5.19-1.82,7.32
		c-1.21,2.13-2.93,3.79-5.16,4.96c-2.23,1.17-4.81,1.76-7.74,1.76H81.62v-28.08h10.52C95.1,115.12,97.69,115.71,99.9,116.88z
		 M97.74,135.16c1.44-1.41,2.16-3.41,2.16-6c0-2.59-0.72-4.6-2.16-6.04s-3.45-2.16-6.04-2.16h-3.24v16.32h3.24
		C94.29,137.28,96.3,136.58,97.74,135.16z"/>
	<path class="st1" d="M117.42,115.12v16.8c0,1.68,0.41,2.97,1.24,3.88c0.83,0.91,2.04,1.36,3.64,1.36s2.83-0.45,3.68-1.36
		c0.85-0.91,1.28-2.2,1.28-3.88v-16.8h6.84v16.76c0,2.51-0.53,4.63-1.6,6.36c-1.07,1.73-2.5,3.04-4.3,3.92
		c-1.8,0.88-3.81,1.32-6.02,1.32c-2.21,0-4.19-0.43-5.94-1.3c-1.75-0.87-3.13-2.17-4.14-3.92c-1.01-1.75-1.52-3.87-1.52-6.38v-16.76
		H117.42z"/>
	<path class="st1" d="M139.54,121.7c1.2-2.17,2.87-3.87,5.02-5.08c2.15-1.21,4.58-1.82,7.3-1.82c3.33,0,6.19,0.88,8.56,2.64
		c2.37,1.76,3.96,4.16,4.76,7.2h-7.52c-0.56-1.17-1.35-2.07-2.38-2.68c-1.03-0.61-2.19-0.92-3.5-0.92c-2.11,0-3.81,0.73-5.12,2.2
		c-1.31,1.47-1.96,3.43-1.96,5.88c0,2.45,0.65,4.41,1.96,5.88c1.31,1.47,3.01,2.2,5.12,2.2c1.31,0,2.47-0.31,3.5-0.92
		c1.03-0.61,1.82-1.51,2.38-2.68h7.52c-0.8,3.04-2.39,5.43-4.76,7.18c-2.37,1.75-5.23,2.62-8.56,2.62c-2.72,0-5.15-0.61-7.3-1.82
		c-2.15-1.21-3.82-2.9-5.02-5.06c-1.2-2.16-1.8-4.63-1.8-7.4C137.74,126.35,138.34,123.88,139.54,121.7z"/>
	<path class="st1" d="M186.86,138.24h-10.48l-1.68,4.96h-7.16l10.16-28.08h7.92l10.16,28.08h-7.24L186.86,138.24z M185.1,132.96
		l-3.48-10.28l-3.44,10.28H185.1z"/>
	<path class="st1" d="M219.06,115.12v5.48h-7.44v22.6h-6.84v-22.6h-7.44v-5.48H219.06z"/>
	<path class="st1" d="M229.34,115.12v28.08h-6.84v-28.08H229.34z"/>
	<path class="st1" d="M240.32,141.64c-2.2-1.23-3.95-2.94-5.24-5.14c-1.29-2.2-1.94-4.67-1.94-7.42c0-2.75,0.65-5.21,1.94-7.4
		c1.29-2.19,3.04-3.89,5.24-5.12c2.2-1.23,4.62-1.84,7.26-1.84c2.64,0,5.06,0.61,7.26,1.84c2.2,1.23,3.93,2.93,5.2,5.12
		c1.27,2.19,1.9,4.65,1.9,7.4c0,2.75-0.64,5.22-1.92,7.42c-1.28,2.2-3.01,3.91-5.2,5.14c-2.19,1.23-4.6,1.84-7.24,1.84
		C244.94,143.48,242.52,142.87,240.32,141.64z M252.96,135c1.35-1.49,2.02-3.47,2.02-5.92c0-2.48-0.67-4.46-2.02-5.94
		c-1.35-1.48-3.14-2.22-5.38-2.22c-2.27,0-4.07,0.73-5.42,2.2c-1.35,1.47-2.02,3.45-2.02,5.96c0,2.48,0.67,4.46,2.02,5.94
		s3.15,2.22,5.42,2.22C249.82,137.24,251.61,136.5,252.96,135z"/>
	<path class="st1" d="M290.86,143.2h-6.84l-11.44-17.32v17.32h-6.84v-28.08h6.84l11.44,17.4v-17.4h6.84V143.2z"/>
</g>
<g>
	<path class="st2" d="M191.78,348.72L191.78,348.72c-2.4,0-4.63-0.71-6.51-1.94c-9.64-6.3-16.08-5.36-28.06-6.08
		c-19.15-1.15-32.25,0.49-51.17,2.23c-4.76,0.44-8.7-3.91-8.7-8.7v-23.85v-8.57v-10.25v-16.23v-7.2v-35.05v-13.6
		c0-4.78,3.91-8.7,8.7-8.7h6.23h6.23h32.39h32.39h4.54h2.34h1.62h1.62h2.34h4.54h32.39h32.39h6.23h6.23c4.78,0,8.7,3.91,8.7,8.7
		v13.6v35.05v7.2v16.23v10.25v8.57v23.85c0,4.78-3.93,9.13-8.7,8.7c-18.92-1.73-32.01-3.37-51.17-2.23
		c-11.99,0.72-18.43-0.21-28.06,6.08C196.41,348.01,194.17,348.72,191.78,348.72L191.78,348.72L191.78,348.72z"/>
	<path class="st3" d="M191.78,214.01h89.9c0.72,0,1.3,0.59,1.3,1.32v111.89c0,6.69-5.33,4.67-12.4,3.9
		c-17.86-1.95-41.21-3.29-59.11-0.63c-6.64,0.99-12.8,4.47-19.69,3.94V214.01L191.78,214.01z"/>
	<path class="st3" d="M191.78,214.01h-89.9c-0.72,0-1.3,0.59-1.3,1.32v111.89c0,6.69,5.33,4.67,12.4,3.9
		c17.86-1.95,41.21-3.29,59.11-0.63c6.64,0.99,12.8,4.47,19.69,3.94V214.01L191.78,214.01z"/>
	<path class="st2" d="M189.71,207.87c1.07,0.31,1.99,0.93,2.64,1.86c0.93,1.31,1.05,2.74,1.05,4.28v116.53
		c0,1.57-0.78,2.99-2.1,3.83c-1.32,0.84-2.95,0.95-4.36,0.29c-11.01-5.13-23.21-8.53-35.12-10.81c-14.55-2.79-29.53-4.03-44.34-4.03
		c-0.07,0-0.14,0-0.21,0c-1.22,0-2.36-0.47-3.22-1.33c-0.86-0.86-1.34-2-1.34-3.22V196.96c0-2.5,2.03-4.54,4.53-4.55
		c0.08,0,0.15,0,0.23,0c15.29,0,30.74,1.29,45.77,4.18C165.62,198.98,178.26,202.53,189.71,207.87L189.71,207.87z"/>
	<path class="st3" d="M105.96,212.46v0.41v95.76v6.65c0,0.36,0.13,0.67,0.38,0.92c0.25,0.25,0.56,0.38,0.92,0.38
		c0.07,0,0.14,0,0.22,0c32.05,0,60.87,5.84,80.82,15.14c0.41,0.19,0.86,0.16,1.25-0.08c0.39-0.25,0.6-0.64,0.6-1.1v-21.92v-94.62
		c0-1.35-0.04-2.75-1.55-3.07c-19.97-9.38-48.91-15.28-81.12-15.28c-0.07,0-0.15,0-0.22,0c-0.71,0-1.3,0.59-1.3,1.3v14.4V212.46
		L105.96,212.46z"/>
	<path class="st2" d="M193.85,207.87c-1.07,0.31-1.99,0.93-2.64,1.86c-0.93,1.31-1.05,2.74-1.05,4.28v116.53
		c0,1.57,0.78,2.99,2.1,3.83c1.32,0.84,2.95,0.95,4.36,0.29c11.01-5.13,23.21-8.53,35.12-10.81c14.55-2.79,29.53-4.03,44.34-4.03
		c0.07,0,0.14,0,0.21,0c1.22,0,2.36-0.47,3.22-1.33c0.86-0.86,1.34-2,1.34-3.22V196.96c0-2.5-2.03-4.54-4.53-4.55
		c-0.08,0-0.15,0-0.23,0c-15.29,0-30.74,1.29-45.77,4.18C217.94,198.98,205.29,202.53,193.85,207.87L193.85,207.87z"/>
	<path class="st3" d="M277.59,212.46v0.41v95.76v6.65c0,0.36-0.13,0.67-0.38,0.92c-0.25,0.25-0.56,0.38-0.92,0.38
		c-0.07,0-0.14,0-0.22,0c-32.05,0-60.87,5.84-80.82,15.14c-0.41,0.19-0.86,0.16-1.25-0.08c-0.39-0.25-0.6-0.64-0.6-1.1v-21.92
		v-94.62c0-1.35,0.04-2.75,1.55-3.07c19.97-9.38,48.91-15.28,81.12-15.28c0.07,0,0.15,0,0.22,0c0.71,0,1.3,0.59,1.3,1.3v14.4V212.46
		L277.59,212.46z"/>
	<path class="st2" d="M118.35,174.56c18.22,0.45,37.11,5.07,53.15,13.85c5.5,3.01,11.15,6.77,15.61,11.2
		c2.79,2.77,6.29,7,6.29,11.16V334.1l-5,4.77l-1.69-4.68c-0.94-2.59-4.03-5.64-6.05-7.41c-4.17-3.66-9.13-6.76-14.04-9.31
		c-14.06-7.3-30.26-11.31-46.05-12.02c-1.87-0.08-3.79-0.18-5.06-1.79c-0.96-1.21-0.93-2.45-0.96-3.88l0-0.03l0-0.03
		c-0.06-17.27-0.1-34.53-0.12-51.8c-0.02-15.98-0.02-31.96,0.08-47.94c0.04-5.32,0.07-10.65,0.19-15.97
		c0.03-1.54,0.07-3.1,0.15-4.64c0.07-1.42,0.08-2.9,1.24-3.96l0.96-0.88L118.35,174.56L118.35,174.56z"/>
	<path class="st3" d="M118.27,177.8c-0.85,0.78-0.61,84.08-0.49,121.9c0.05,2.19-0.14,2.37,2.93,2.51
		c37.89,1.72,65.48,21.02,69.05,30.88l0.4-0.38V210.76C190.16,201.63,160.21,178.85,118.27,177.8L118.27,177.8z"/>
	<path class="st2" d="M265.2,174.56c-18.22,0.45-37.11,5.07-53.15,13.85c-5.5,3.01-11.15,6.77-15.61,11.2
		c-2.79,2.77-6.29,7-6.29,11.16V334.1l5,4.77l1.69-4.68c0.94-2.59,4.03-5.64,6.05-7.41c4.17-3.66,9.13-6.76,14.04-9.31
		c14.06-7.3,30.26-11.31,46.05-12.02c1.87-0.08,3.79-0.18,5.06-1.79c0.96-1.21,0.93-2.45,0.96-3.88l0-0.03l0-0.03
		c0.06-17.27,0.1-34.53,0.12-51.8c0.02-15.98,0.02-31.96-0.08-47.94c-0.04-5.32-0.07-10.65-0.19-15.97
		c-0.03-1.54-0.07-3.1-0.15-4.64c-0.07-1.42-0.08-2.9-1.24-3.96l-0.96-0.88L265.2,174.56L265.2,174.56z"/>
	<path class="st3" d="M265.29,177.8c0.85,0.78,0.61,84.08,0.49,121.9c-0.05,2.19,0.14,2.37-2.93,2.51
		c-37.89,1.72-65.48,21.02-69.05,30.88l-0.4-0.38V210.76C193.4,201.63,223.35,178.85,265.29,177.8L265.29,177.8z"/>
</g>
</svg>
