<?xml version="1.0" encoding="utf-8"?>
<!-- Generator: Adobe Illustrator 27.3.1, SVG Export Plug-In . SVG Version: 6.00 Build 0)  -->
<svg version="1.1" id="Calque_1" xmlns="http://www.w3.org/2000/svg" xmlns:xlink="http://www.w3.org/1999/xlink" x="0px" y="0px"
	 viewBox="0 0 476.68 407.17" style="enable-background:new 0 0 476.68 407.17;" xml:space="preserve">
<style type="text/css">
	.st0{fill:#2DAE87;}
	.st1{fill:#FFFFFF;}
</style>
<circle class="st0" cx="208.65" cy="203.56" r="179"/>
<g>
	<path id="XMLID_1157_" class="st1" d="M353.09,233.22c-1.8,3.07-3.14,6.29-3.98,9.6c-0.77,3.38-1.02,6.86-0.81,10.34
		c0.15,2.5,0.18,5.17-0.02,7.83c-0.17,2.7-0.56,5.39-1.35,7.84c-1.01,3.15-2.6,5.58-4.32,7.56c-1.74,1.95-3.72,3.32-5.54,4.28
		c-0.42,0.22-0.86,0.4-1.31,0.53c-0.44,0.14-0.89,0.24-1.34,0.29c-0.91,0.11-1.84,0.04-2.74-0.2c-1.8-0.47-3.49-1.59-4.65-3.25
		c-1.24-1.79-2.45-4.04-3.13-6.67c-0.34-1.32-0.54-2.73-0.54-4.22c0-0.75,0.04-1.52,0.16-2.3c0.12-0.78,0.3-1.57,0.55-2.39
		c0.77-2.53,2.19-4.98,3.91-7.31c1.67-2.36,3.89-4.42,6.05-6.27c0.76-0.65,1.5-1.31,2.23-1.98c0.73-0.67,1.42-1.36,2.16-2.03
		c1.47-1.32,2.88-2.69,4.24-4.08c0.68-0.7,1.34-1.4,1.99-2.12c0.33-0.36,0.64-0.72,0.97-1.07c0.34-0.35,0.67-0.7,1-1.04
		c1.32-1.39,2.59-2.8,3.81-4.24c0,0,0.67-0.77,1.66-1.93c0.49-0.59,1.13-1.22,1.81-1.9c0.68-0.68,1.42-1.39,2.17-2.1
		c1.49-1.42,3.01-2.81,4.18-3.83c1.23-0.97,2.07-1.6,2.07-1.6s-0.67,0.7-1.64,1.76c-0.95,1.09-2.1,2.62-3.26,4.15
		c-1.15,1.54-2.25,3.1-3.06,4.29c-0.42,0.59-0.72,1.11-0.93,1.47C353.21,233.01,353.09,233.22,353.09,233.22z"/>
	<path id="XMLID_1158_" class="st1" d="M384.04,249.87c-0.83,1.03-1.66,2.04-2.55,2.89c-0.89,0.86-1.83,1.6-2.77,2.23
		c-0.47,0.32-0.95,0.61-1.43,0.87c-0.48,0.26-0.93,0.54-1.4,0.77c-0.92,0.48-1.82,0.86-2.67,1.17c-1.58,0.57-3.22,0.56-4.64,0.07
		c-1.4-0.46-2.58-1.41-3.22-2.75c-0.68-1.44-1.24-3.23-1.26-5.25c0.01-1.99,0.58-4.21,2.17-6.5c0.62-0.89,1.36-1.76,2.2-2.6
		c0.21-0.21,0.42-0.42,0.65-0.62c0.23-0.2,0.47-0.39,0.71-0.58c0.49-0.38,0.99-0.75,1.52-1.11c1.04-0.72,2.15-1.4,3.28-2.04
		c0.57-0.32,1.14-0.63,1.72-0.92c0.6-0.28,1.2-0.53,1.8-0.78c1.67-0.69,3.3-1.42,4.89-2.17c0.78-0.38,1.62-0.72,2.42-1.07
		c0.81-0.35,1.61-0.7,2.4-1.05c1.59-0.7,3.1-1.45,4.69-2.1c1.57-0.65,3.11-1.31,4.6-1.97c0,0,0.2-0.09,0.56-0.24
		c0.37-0.14,0.9-0.34,1.53-0.57c1.27-0.48,2.99-1.02,4.73-1.54c0.43-0.14,0.88-0.24,1.33-0.34c0.45-0.1,0.88-0.2,1.31-0.29
		c0.85-0.19,1.64-0.35,2.33-0.47c0.69-0.12,1.26-0.21,1.66-0.28c0.2-0.03,0.36-0.06,0.47-0.07c0.11-0.01,0.17-0.02,0.17-0.02
		s-0.05,0.01-0.15,0.03c-0.09,0.03-0.23,0.06-0.4,0.11c-0.34,0.1-0.84,0.24-1.43,0.42c-1.18,0.34-2.73,0.89-4.26,1.47
		c-1.5,0.62-2.93,1.33-4.01,1.87c-0.54,0.27-0.98,0.52-1.29,0.68c-0.31,0.17-0.48,0.27-0.48,0.27c-0.32,0.18-0.64,0.36-0.95,0.55
		c-0.3,0.2-0.59,0.4-0.88,0.61c-0.58,0.42-1.13,0.84-1.66,1.29c-1.06,0.89-2.02,1.81-2.86,2.81c-0.21,0.25-0.42,0.5-0.61,0.76
		c-0.19,0.26-0.37,0.53-0.55,0.8c-0.35,0.54-0.68,1.08-0.98,1.64c-0.6,1.11-1.1,2.25-1.49,3.42
		C388.07,242.54,386.57,246.59,384.04,249.87z"/>
	<path id="XMLID_1159_" class="st1" d="M418.52,272.56c0,0-0.03,0-0.09,0.01c-0.06,0.01-0.14,0.03-0.25,0.05
		c-0.22,0.05-0.52,0.11-0.9,0.18c-0.75,0.16-1.74,0.21-2.77,0.33c-1.05,0.15-2.11,0.29-2.93,0.31c-0.41,0.02-0.75,0.03-0.99,0.04
		c-0.25,0.02-0.39,0.04-0.39,0.04c-1.04,0.1-2.1,0.23-3.2,0.39c-1.09,0.1-2.24,0.38-3.39,0.66c-0.58,0.14-1.16,0.29-1.75,0.45
		c-0.58,0.17-1.18,0.29-1.78,0.53c-1.2,0.42-2.4,0.89-3.6,1.41c-0.43,0.18-0.87,0.37-1.32,0.53c-0.45,0.19-0.91,0.37-1.37,0.54
		c-0.92,0.34-1.86,0.64-2.81,0.87c-0.95,0.24-1.9,0.37-2.85,0.5c-0.95,0.12-1.89,0.15-2.81,0.07c-2.36-0.19-4.32-1.05-5.91-2.2
		c-1.59-1.12-2.8-2.52-3.68-3.84c-0.82-1.23-1.08-2.73-0.81-4.16c0.28-1.4,1.12-2.73,2.41-3.69c2.73-2.13,7.16-3.99,12.14-3.31
		c3.89,0.6,7.34,2.45,9.94,4.5c0.91,0.7,1.84,1.32,2.78,1.87c0.47,0.28,0.95,0.53,1.42,0.77c0.47,0.23,0.95,0.45,1.44,0.69
		c0.96,0.46,1.92,0.8,2.89,1.08c0.48,0.14,0.97,0.25,1.45,0.35c0.24,0.05,0.49,0.09,0.73,0.13c0.24,0.05,0.48,0.1,0.72,0.15
		c0,0,0.13,0.02,0.36,0.06c0.23,0.04,0.55,0.1,0.93,0.15c0.76,0.11,1.76,0.19,2.72,0.28c0.95,0.14,1.87,0.24,2.55,0.25
		c0.34,0.01,0.62,0.01,0.82,0.01c0.1,0,0.17,0,0.23,0C418.49,272.56,418.52,272.56,418.52,272.56z"/>
	<path id="XMLID_1160_" class="st1" d="M399.34,296.71c0,0-0.64,0.08-1.62,0.17c-1,0.12-2.37,0.28-3.77,0.39
		c-2.9,0.22-5.79,0.43-5.79,0.43c-2.77,0.21-5.62,0.59-8.53,1.43c-1.45,0.4-2.89,0.87-4.33,1.41c-0.73,0.24-1.45,0.58-2.16,0.9
		c-0.72,0.33-1.43,0.68-2.14,1.05c-1.01,0.53-2.08,1.03-3.18,1.48c-0.55,0.22-1.12,0.41-1.69,0.61c-0.57,0.21-1.14,0.4-1.73,0.58
		c-2.33,0.69-4.74,1.09-7.15,0.93c-0.77-0.05-1.53-0.15-2.25-0.3c-0.72-0.14-1.42-0.3-2.09-0.52c-1.35-0.43-2.6-1-3.75-1.67
		c-2.3-1.34-4.18-3.06-5.63-4.69c-1.35-1.51-2.08-3.39-2.15-5.24c-0.03-0.92,0.1-1.83,0.39-2.69c0.15-0.43,0.34-0.84,0.57-1.23
		c0.23-0.39,0.52-0.74,0.84-1.08c1.39-1.43,3.22-2.9,5.52-3.95c2.27-1.09,5.09-1.63,8.27-1.4c2.48,0.19,4.99,0.86,7.38,1.8
		c2.42,0.99,4.7,2.21,6.75,3.49c2.87,1.79,5.77,3.21,8.66,4.31c2.88,1.13,5.72,1.89,8.49,2.27c0,0,0.19,0.03,0.51,0.07
		c0.33,0.04,0.79,0.11,1.34,0.2c1.09,0.17,2.52,0.39,3.91,0.57c1.39,0.19,2.74,0.33,3.73,0.46
		C398.7,296.63,399.34,296.71,399.34,296.71z"/>
	<path id="XMLID_1161_" class="st1" d="M380.71,325.08c0,0-3.47,0.3-7.11,0.52c-0.91,0.05-1.85,0.08-2.73,0.11
		c-0.88,0.02-1.7,0.1-2.41,0.14c-1.43,0.09-2.38,0.15-2.38,0.15c-1.76,0.11-3.52,0.31-5.32,0.55c-0.89,0.13-1.78,0.27-2.67,0.45
		c-0.88,0.2-1.76,0.42-2.63,0.67c-0.87,0.25-1.74,0.51-2.6,0.81c-0.87,0.28-1.74,0.58-2.59,0.9c-0.86,0.32-1.71,0.67-2.55,1.04
		l-0.63,0.28c-0.11,0.05-0.2,0.09-0.32,0.15l-0.36,0.19c-0.47,0.25-0.95,0.51-1.41,0.77c-0.67,0.38-1.36,0.75-2.06,1.11
		c-0.71,0.35-1.43,0.69-2.16,1.01c-1.47,0.65-2.97,1.23-4.5,1.72c-1.54,0.48-3.12,0.86-4.68,1.11c-1.56,0.25-3.14,0.35-4.68,0.31
		c-1.98-0.06-3.79-0.37-5.49-0.88c-1.7-0.51-3.24-1.21-4.65-2.01c-2.81-1.61-5.04-3.67-6.75-5.6c-1.59-1.8-2.44-4.01-2.54-6.14
		c-0.1-2.13,0.55-4.18,1.93-5.76c1.5-1.69,3.51-3.41,6.11-4.67c2.58-1.29,5.74-2.13,9.59-2.04c1.49,0.04,3.07,0.19,4.6,0.5
		c1.53,0.32,3.06,0.75,4.59,1.26c3.04,1.02,6.04,2.4,8.75,3.82c1.9,1,3.81,1.9,5.72,2.7c0.95,0.4,1.91,0.78,2.86,1.13
		c0.95,0.35,1.91,0.71,2.86,1.03c1.9,0.64,3.81,1.21,5.67,1.64c1.86,0.43,3.7,0.77,5.51,1c0,0,0.98,0.12,2.44,0.31
		c1.45,0.2,3.41,0.55,5.26,0.78C377.15,324.64,380.71,325.08,380.71,325.08z"/>
	<path id="XMLID_1162_" class="st1" d="M356.16,355.21c0,0-1.22,0.16-3.05,0.41c-1.85,0.23-4.33,0.53-6.8,0.79
		c-2.51,0.23-5,0.44-6.87,0.59c-1.89,0.14-3.15,0.22-3.15,0.22c-2.34,0.15-4.63,0.42-6.95,0.71c-1.15,0.15-2.3,0.33-3.44,0.53
		c-1.16,0.19-2.31,0.4-3.45,0.64c-1.14,0.24-2.28,0.5-3.4,0.78c-1.12,0.29-2.24,0.59-3.36,0.91c-1.11,0.32-2.24,0.65-3.36,1
		c-1.12,0.35-2.23,0.74-3.32,1.14c-1.57,0.58-3.2,1.13-4.87,1.61c-1.71,0.44-3.46,0.8-5.21,1.07c-1.75,0.27-3.49,0.45-5.21,0.49
		c-1.72,0.04-3.45-0.06-5.1-0.33c-4.26-0.69-7.63-2.28-10.35-4.28c-2.72-2-4.74-4.35-6.23-6.51c-1.38-2.01-1.93-4.33-1.73-6.49
		c0.2-2.16,1.1-4.22,2.75-5.63c0.89-0.76,1.9-1.52,3.05-2.21c1.14-0.71,2.4-1.36,3.81-1.87c1.41-0.51,2.97-0.88,4.69-1.05
		c1.72-0.17,3.55-0.19,5.57,0.09c3.14,0.42,6.47,1.45,9.75,2.8c3.26,1.33,6.49,2.98,9.47,4.68c8.36,4.76,17.51,7.73,26.82,8.6
		c0,0,1.25,0.11,3.12,0.28c1.87,0.16,4.4,0.38,6.89,0.55c2.48,0.15,5,0.29,6.84,0.36C354.93,355.17,356.16,355.21,356.16,355.21z"/>
	<path id="XMLID_1167_" class="st1" d="M242.4,276.96c0,0-0.02,4.7-0.2,9.47c-0.05,1.18-0.1,2.36-0.15,3.47
		c-0.05,1.11-0.1,2.15-0.14,3.04c-0.1,1.79-0.16,2.99-0.16,2.99c-0.13,2.2-0.2,4.49-0.22,6.7c-0.02,2.24,0.01,4.49,0.13,6.8
		c0.11,2.31,0.28,4.65,0.51,6.97c0.23,2.31,0.52,4.63,0.87,6.96c0.52,3.34,0.83,6.87,0.77,10.34c-0.08,3.41-0.55,6.72-1.58,9.63
		c-0.33,0.93-0.7,1.82-1.12,2.6c-0.42,0.79-0.88,1.52-1.37,2.19c-0.98,1.34-2.08,2.47-3.23,3.4c-0.9,0.71-1.83,1.25-2.76,1.73
		c2.88-1.23,5.76-2.5,8.62-3.87c8.84-4.21,17.57-9.08,26.09-14.34l3.2-1.96l3.15-2.05c2.1-1.37,4.21-2.7,6.27-4.14
		c2.06-1.42,4.14-2.81,6.17-4.24c2.03-1.45,4.05-2.9,6.06-4.34c1.01-0.71,2-1.46,2.98-2.2c0.99-0.74,1.97-1.48,2.95-2.22
		c0.98-0.74,1.96-1.47,2.94-2.2c0.96-0.75,1.92-1.5,2.88-2.25c1.92-1.5,3.82-2.99,5.71-4.47c1.86-1.52,3.71-3.02,5.55-4.51
		c3.72-3,7.37-5.94,10.95-8.83c0.45-0.36,0.9-0.72,1.34-1.08c0.46-0.35,0.91-0.69,1.37-1.04c0.91-0.69,1.81-1.37,2.71-2.05
		c1.8-1.36,3.57-2.69,5.32-4.01c1.79-1.27,3.56-2.52,5.3-3.75c1.74-1.23,3.43-2.47,5.18-3.58c3.46-2.26,6.74-4.52,10.05-6.45
		c1.63-1,3.24-1.97,4.8-2.92c1.6-0.89,3.17-1.76,4.69-2.61c3.02-1.75,6.01-3.18,8.78-4.59c0.7-0.34,1.36-0.72,2.06-1.01
		c0.69-0.31,1.36-0.61,2.02-0.91c1.32-0.6,2.6-1.17,3.83-1.73c0.61-0.29,1.23-0.52,1.83-0.76c0.6-0.24,1.19-0.47,1.76-0.7
		c1.15-0.46,2.24-0.89,3.28-1.3c2.1-0.75,4-1.37,5.64-1.94c0.34-0.12,0.66-0.22,0.98-0.32c-0.22-1.02,0.02-2.15,0.86-3.19
		c0.51-0.63,1.12-1.29,1.87-1.93c0.75-0.64,1.62-1.32,2.67-1.84c1.05-0.54,2.24-1.03,3.59-1.44c0.34-0.1,0.68-0.2,1.04-0.29
		c0.36-0.08,0.73-0.14,1.11-0.21c0.76-0.12,1.56-0.23,2.4-0.3c5.24-0.41,11.09,0.61,15.75,2.1c0.41,0.12,0.82,0.21,1.22,0.35
		c0.41,0.13,0.82,0.27,1.23,0.4c0.82,0.26,1.64,0.5,2.45,0.73c0.82,0.28,1.63,0.55,2.45,0.82c0.41,0.13,0.82,0.26,1.23,0.38
		c0.4,0.15,0.81,0.3,1.22,0.45c0.41,0.14,0.81,0.29,1.22,0.43c0.41,0.15,0.82,0.26,1.22,0.44c0.8,0.33,1.61,0.65,2.42,0.96
		c0.8,0.34,1.59,0.72,2.39,1.06c0.2,0.09,0.4,0.17,0.6,0.27l0.58,0.3l1.17,0.59c0,0,0.21,0.11,0.58,0.29
		c0.36,0.21,0.87,0.5,1.49,0.86c0.3,0.18,0.65,0.36,0.98,0.59c0.34,0.22,0.7,0.46,1.07,0.7c0.75,0.46,1.49,1.06,2.25,1.61
		c1.48,1.17,2.87,2.44,3.84,3.46c0.7,0.73,1.16,1.32,1.38,1.6c0.09,0.11,0.14,0.19,0.14,0.19s-0.06-0.07-0.14-0.19
		c-0.22-0.28-0.68-0.87-1.39-1.59c-0.98-1.02-2.39-2.26-3.91-3.37c-0.78-0.52-1.53-1.09-2.3-1.51c-0.38-0.22-0.74-0.44-1.09-0.65
		c-0.34-0.21-0.69-0.36-1-0.53c-0.63-0.32-1.15-0.59-1.52-0.76c-0.38-0.16-0.59-0.25-0.59-0.25c-3.16-1.4-6.49-2.31-9.79-2.6
		c-0.41-0.04-0.82-0.08-1.23-0.12c-0.41-0.01-0.82-0.01-1.24-0.02c-0.82,0-1.63,0-2.43,0.04c-0.81,0.08-1.6,0.18-2.39,0.29
		c-0.39,0.06-0.78,0.12-1.16,0.18c-0.38,0.06-0.77,0.18-1.15,0.27c-1.09,0.29-2.21,0.57-3.34,0.89c-1.13,0.37-2.28,0.74-3.42,1.09
		c-0.57,0.15-1.14,0.39-1.71,0.58c-0.57,0.2-1.14,0.38-1.7,0.56c-0.56,0.18-1.12,0.33-1.68,0.5c-0.56,0.19-1.11,0.36-1.66,0.52
		c-0.7,0.2-1.38,0.35-2.04,0.48c-0.33,0.06-0.65,0.11-0.97,0.17c-0.32,0.07-0.63,0.12-0.93,0.17c-1.22,0.2-2.37,0.27-3.44,0.23
		c-1.07-0.06-2.05-0.1-2.97-0.27c-0.91-0.15-1.74-0.38-2.48-0.63c-1.44-0.49-2.39-1.49-2.72-2.65c-0.31,0.1-0.62,0.21-0.94,0.34
		c-1.61,0.62-3.48,1.3-5.55,2.13c-1.02,0.45-2.09,0.92-3.21,1.42c-0.56,0.25-1.14,0.5-1.72,0.76c-0.59,0.26-1.19,0.51-1.78,0.83
		c-1.2,0.6-2.44,1.23-3.73,1.88c-0.64,0.33-1.3,0.66-1.97,1c-0.67,0.32-1.32,0.73-2,1.1c-2.68,1.53-5.58,3.08-8.49,4.97
		c-1.47,0.92-2.97,1.86-4.51,2.83c-1.5,1.03-3.04,2.07-4.6,3.14c-3.17,2.09-6.3,4.51-9.59,6.93c-1.66,1.19-3.27,2.52-4.92,3.83
		c-1.65,1.32-3.32,2.65-5.02,4.01c-1.65,1.41-3.33,2.83-5.03,4.28c-0.85,0.72-1.7,1.45-2.56,2.18c-0.43,0.37-0.86,0.73-1.29,1.1
		c-0.43,0.37-0.84,0.76-1.27,1.14c-1.69,1.53-3.4,3.08-5.12,4.64c-1.73,1.57-3.47,3.16-5.22,4.76c-1.76,1.61-3.54,3.24-5.33,4.87
		c-1.82,1.6-3.66,3.22-5.51,4.84c-0.93,0.81-1.86,1.62-2.79,2.44c-0.95,0.8-1.9,1.6-2.85,2.4c-0.95,0.8-1.91,1.6-2.87,2.41
		c-0.96,0.8-1.92,1.62-2.91,2.4c-1.97,1.57-3.94,3.15-5.92,4.74c-2,1.56-4.04,3.08-6.07,4.63c-2.02,1.57-4.12,3.03-6.2,4.53
		l-3.13,2.24l-3.19,2.16c-8.51,5.76-17.37,11.1-26.47,15.73c-1.8,0.91-3.62,1.78-5.44,2.63c1.36-0.24,2.8-0.38,4.36-0.32
		c0.88,0.03,1.79,0.12,2.73,0.27c0.94,0.15,1.89,0.32,2.89,0.59c3.1,0.81,6.29,2.24,9.43,4c3.11,1.72,6.14,3.74,8.96,5.82
		c1.96,1.44,4.01,2.79,6.15,4.04c2.13,1.24,4.31,2.36,6.58,3.4c4.52,2.05,9.36,3.65,14.28,4.75c0,0,1.35,0.3,3.37,0.75
		c1.02,0.22,2.21,0.49,3.48,0.74c0.64,0.13,1.3,0.26,1.96,0.4c0.66,0.13,1.33,0.26,2,0.39c5.37,1.04,10.9,2.01,10.9,2.01
		s-5.62-0.13-11.1-0.34c-1.39-0.06-2.78-0.12-4.09-0.2c-1.31-0.09-2.53-0.17-3.58-0.24c-2.07-0.15-3.46-0.25-3.46-0.25
		c-0.63-0.04-1.26-0.08-1.9-0.12c-0.64-0.03-1.29-0.07-1.93-0.11c-1.29-0.06-2.57-0.09-3.84-0.11c-1.28-0.02-2.56-0.03-3.83-0.01
		c-0.64,0.01-1.27,0.02-1.9,0.05c-0.64,0.02-1.28,0.04-1.93,0.06c-2.57,0.1-5.09,0.31-7.6,0.59c-1.25,0.14-2.55,0.26-3.81,0.43
		c-1.27,0.16-2.53,0.35-3.79,0.56c-3.54,0.67-7.53,0.9-11.3,0.86c-0.47-0.01-0.95-0.02-1.41-0.04c-0.47-0.02-0.95-0.06-1.43-0.1
		c-0.95-0.08-1.88-0.18-2.79-0.31c-1.84-0.28-3.6-0.67-5.24-1.18c-8.57-2.78-12.37-8.19-14.3-12.58c-0.88-2.03-0.85-4.21-0.14-6.17
		c0.44-1.2,1.16-2.29,2.08-3.21c-4.05,1.61-8.11,3.08-12.19,4.34c-9.38,2.89-18.79,4.76-27.82,5.56
		c-9.03,0.81-17.65,0.54-25.47-0.49c-7.83-1.04-14.85-2.78-20.88-4.78c-1.51-0.5-2.94-1.06-4.33-1.56c-0.69-0.26-1.38-0.5-2.04-0.77
		c-0.66-0.28-1.3-0.55-1.93-0.82c-1.25-0.54-2.46-1.06-3.61-1.56c-1.12-0.55-2.2-1.07-3.21-1.57c-1.01-0.5-1.98-0.95-2.86-1.44
		c-0.88-0.49-1.7-0.94-2.47-1.37c-0.76-0.43-1.47-0.82-2.12-1.18c-0.65-0.36-1.21-0.74-1.72-1.05c-2.04-1.28-3.13-1.96-3.13-1.96
		c-0.87-0.53-1.65-1.13-2.37-1.65c-0.7-0.5-1.34-0.97-1.92-1.39c-0.55-0.39-1-0.7-1.32-0.9c-0.32-0.21-0.5-0.31-0.5-0.31
		s0.18,0.1,0.52,0.25c0.34,0.16,0.83,0.37,1.44,0.63c1.23,0.49,2.92,1.19,4.79,1.9c0,0,1.18,0.46,3.39,1.32
		c0.55,0.21,1.16,0.47,1.85,0.71c0.69,0.24,1.43,0.51,2.24,0.8c0.81,0.29,1.67,0.6,2.6,0.93c0.46,0.17,0.94,0.32,1.44,0.48
		c0.5,0.16,1.01,0.32,1.53,0.49c1.05,0.33,2.15,0.69,3.3,1.06c1.17,0.32,2.39,0.66,3.66,1.02c0.63,0.18,1.28,0.36,1.94,0.55
		c0.66,0.18,1.35,0.32,2.04,0.49c1.38,0.32,2.81,0.69,4.29,1.01c5.93,1.27,12.68,2.3,20.06,2.76c7.38,0.45,15.39,0.29,23.77-0.74
		c8.38-1.02,17.12-2.9,25.96-5.64c4.83-1.49,9.68-3.25,14.53-5.21c-0.28,0.09-0.56,0.19-0.83,0.26c-2.08,0.5-4.17,0.1-5.86-0.94
		c-1.7-1.03-3-2.73-3.62-4.87c-0.67-2.29-1.17-5.09-1.18-8.2c-0.01-3.11,0.48-6.49,1.73-10.05c0.48-1.41,1.06-2.8,1.71-4.13
		c0.33-0.66,0.67-1.3,1.03-1.94c0.18-0.31,0.36-0.63,0.55-0.94c0.19-0.32,0.38-0.64,0.57-0.96c0.77-1.27,1.58-2.49,2.4-3.64
		c0.21-0.29,0.41-0.58,0.62-0.85c0.21-0.28,0.43-0.53,0.64-0.82c0.43-0.56,0.85-1.1,1.28-1.62c0.59-0.73,1.17-1.48,1.72-2.25
		c0.55-0.78,1.08-1.53,1.57-2.39c1.01-1.67,1.94-3.36,2.76-5.14c0.21-0.44,0.41-0.89,0.6-1.34c0.19-0.47,0.38-0.94,0.56-1.41
		c0.36-0.95,0.69-1.92,1-2.88c0.32-0.96,0.61-1.93,0.88-2.91c0.13-0.49,0.26-0.98,0.38-1.48c0.12-0.51,0.23-1.02,0.34-1.54
		c0,0,0.23-1.12,0.56-2.79c0.32-1.65,0.74-3.85,1.17-6.06C241.7,281.34,242.4,276.96,242.4,276.96z"/>
	<path id="XMLID_1168_" class="st1" d="M272.85,256.37c0,0-0.02,1.11-0.04,2.77c-0.03,1.66-0.07,3.87-0.12,6.09
		c-0.06,4.56-0.13,9.12-0.13,9.12c-0.09,4.18,0.15,8.52,0.78,13.01c0.15,1.12,0.33,2.24,0.53,3.37c0.19,1.11,0.41,2.23,0.64,3.35
		c0.47,2.24,1.03,4.5,1.67,6.77c0.92,3.24,1.7,6.71,2.13,10.17c0.41,3.43,0.43,6.78-0.11,9.83c-0.36,1.95-0.92,3.69-1.65,5.17
		c-0.74,1.48-1.62,2.76-2.59,3.85c-0.97,1.09-2.01,2.01-3.08,2.75c-1.08,0.72-2.17,1.3-3.21,1.76c-1.94,0.84-4.09,0.78-6.05-0.09
		c-1.97-0.87-3.71-2.48-4.85-4.64c-1.23-2.32-2.41-5.17-3.1-8.37c-0.69-3.21-0.92-6.84-0.26-10.64c0.25-1.49,0.66-2.9,1.14-4.32
		c0.48-1.43,1.06-2.81,1.7-4.15c0.64-1.34,1.35-2.62,2.1-3.84c0.75-1.24,1.55-2.42,2.35-3.52c0.56-0.77,1.1-1.56,1.61-2.36
		c0.51-0.8,1-1.62,1.46-2.49c0.46-0.87,0.9-1.73,1.33-2.6c0.42-0.87,0.83-1.76,1.2-2.66c0.38-0.9,0.73-1.81,1.06-2.73
		c0.32-0.95,0.62-1.9,0.89-2.87c0.53-1.95,1.03-3.86,1.4-5.83c0,0,0.2-1.07,0.51-2.67c0.29-1.61,0.68-3.76,1.07-5.9
		c0.41-2.08,0.82-4.16,1.13-5.72C272.65,257.42,272.85,256.37,272.85,256.37z"/>
	<path id="XMLID_1169_" class="st1" d="M314.47,233.15c0,0-1.53,4.23-2.88,8.53c-0.17,0.54-0.33,1.08-0.5,1.6
		c-0.16,0.54-0.31,1.07-0.46,1.58c-0.29,1.03-0.56,1.98-0.77,2.81c-0.4,1.67-0.66,2.78-0.66,2.78c-0.48,2.05-0.83,4.13-1.06,6.22
		c-0.23,2.09-0.29,4.23-0.25,6.35c0.03,1.06,0.07,2.12,0.17,3.19c0.1,1.07,0.23,2.14,0.4,3.21c0.33,2.14,0.78,4.27,1.35,6.38
		c0.81,3.03,1.55,6.3,1.97,9.54c0.21,1.62,0.35,3.23,0.38,4.81c0.04,1.57,0.04,3.07-0.14,4.53c-0.44,3.74-1.72,6.71-3.39,9
		c-1.7,2.25-3.75,3.85-5.67,4.96c-1.77,1.04-3.91,1.16-5.94,0.53c-2.02-0.63-3.93-2-5.31-3.97c-1.48-2.12-2.97-4.76-3.98-7.78
		c-0.5-1.51-0.89-3.12-1.09-4.8c-0.2-1.68-0.24-3.48-0.04-5.31c0.16-1.43,0.45-2.86,0.87-4.23c0.42-1.37,0.95-2.7,1.55-3.99
		c0.6-1.32,1.27-2.59,1.99-3.8c0.36-0.61,0.73-1.2,1.11-1.78c0.39-0.57,0.79-1.12,1.19-1.66c0.59-0.8,1.17-1.6,1.75-2.4
		c0.64-0.88,1.26-1.77,1.86-2.68c0.6-0.9,1.17-1.83,1.74-2.75c0.57-0.92,1.12-1.84,1.65-2.78c0.53-0.94,1.04-1.89,1.54-2.85
		c0.51-0.95,1.02-1.9,1.5-2.87c0.95-1.95,1.88-3.88,2.72-5.84c0,0,0.46-1.06,1.16-2.66c0.68-1.6,1.7-3.7,2.76-5.76
		C312.15,237.17,314.47,233.15,314.47,233.15z"/>
</g>
<g>
	<path class="st1" d="M96.72,214.08H86.24l-1.68,4.96H77.4l10.16-28.08h7.92l10.16,28.08H98.4L96.72,214.08z M94.96,208.8
		l-3.48-10.28l-3.44,10.28H94.96z"/>
	<path class="st1" d="M127.36,199.84c-0.51-0.93-1.23-1.65-2.18-2.14c-0.95-0.49-2.06-0.74-3.34-0.74c-2.21,0-3.99,0.73-5.32,2.18
		c-1.33,1.45-2,3.39-2,5.82c0,2.59,0.7,4.61,2.1,6.06c1.4,1.45,3.33,2.18,5.78,2.18c1.68,0,3.1-0.43,4.26-1.28
		c1.16-0.85,2.01-2.08,2.54-3.68h-8.68v-5.04h14.88v6.36c-0.51,1.71-1.37,3.29-2.58,4.76c-1.21,1.47-2.75,2.65-4.62,3.56
		c-1.87,0.91-3.97,1.36-6.32,1.36c-2.77,0-5.25-0.61-7.42-1.82c-2.17-1.21-3.87-2.9-5.08-5.06c-1.21-2.16-1.82-4.63-1.82-7.4
		c0-2.77,0.61-5.25,1.82-7.42c1.21-2.17,2.9-3.87,5.06-5.08c2.16-1.21,4.63-1.82,7.4-1.82c3.36,0,6.19,0.81,8.5,2.44
		c2.31,1.63,3.83,3.88,4.58,6.76H127.36z"/>
	<path class="st1" d="M153.52,219.04l-5.84-10.6h-1.64v10.6h-6.84v-28.08h11.48c2.21,0,4.1,0.39,5.66,1.16s2.73,1.83,3.5,3.18
		c0.77,1.35,1.16,2.85,1.16,4.5c0,1.87-0.53,3.53-1.58,5c-1.05,1.47-2.61,2.51-4.66,3.12l6.48,11.12H153.52z M146.04,203.6h4.24
		c1.25,0,2.19-0.31,2.82-0.92c0.63-0.61,0.94-1.48,0.94-2.6c0-1.07-0.31-1.91-0.94-2.52c-0.63-0.61-1.57-0.92-2.82-0.92h-4.24V203.6
		z"/>
	<path class="st1" d="M172.12,190.96v28.08h-6.84v-28.08H172.12z"/>
	<path class="st1" d="M177.72,197.54c1.2-2.17,2.87-3.87,5.02-5.08c2.15-1.21,4.58-1.82,7.3-1.82c3.33,0,6.19,0.88,8.56,2.64
		c2.37,1.76,3.96,4.16,4.76,7.2h-7.52c-0.56-1.17-1.35-2.07-2.38-2.68c-1.03-0.61-2.19-0.92-3.5-0.92c-2.11,0-3.81,0.73-5.12,2.2
		c-1.31,1.47-1.96,3.43-1.96,5.88c0,2.45,0.65,4.41,1.96,5.88c1.31,1.47,3.01,2.2,5.12,2.2c1.31,0,2.47-0.31,3.5-0.92
		c1.03-0.61,1.82-1.51,2.38-2.68h7.52c-0.8,3.04-2.39,5.43-4.76,7.18c-2.37,1.75-5.23,2.62-8.56,2.62c-2.72,0-5.15-0.61-7.3-1.82
		c-2.15-1.21-3.82-2.9-5.02-5.06c-1.2-2.16-1.8-4.63-1.8-7.4C175.92,202.18,176.52,199.71,177.72,197.54z"/>
	<path class="st1" d="M214.28,190.96v16.8c0,1.68,0.41,2.97,1.24,3.88c0.83,0.91,2.04,1.36,3.64,1.36c1.6,0,2.83-0.45,3.68-1.36
		c0.85-0.91,1.28-2.2,1.28-3.88v-16.8h6.84v16.76c0,2.51-0.53,4.63-1.6,6.36c-1.07,1.73-2.5,3.04-4.3,3.92s-3.81,1.32-6.02,1.32
		s-4.19-0.43-5.94-1.3c-1.75-0.87-3.13-2.17-4.14-3.92c-1.01-1.75-1.52-3.87-1.52-6.38v-16.76H214.28z"/>
	<path class="st1" d="M242.6,213.76h8.96v5.28h-15.8v-28.08h6.84V213.76z"/>
	<path class="st1" d="M275.04,190.96v5.48h-7.44v22.6h-6.84v-22.6h-7.44v-5.48H275.04z"/>
	<path class="st1" d="M285.2,190.96v16.8c0,1.68,0.41,2.97,1.24,3.88c0.83,0.91,2.04,1.36,3.64,1.36c1.6,0,2.83-0.45,3.68-1.36
		c0.85-0.91,1.28-2.2,1.28-3.88v-16.8h6.84v16.76c0,2.51-0.53,4.63-1.6,6.36c-1.07,1.73-2.5,3.04-4.3,3.92s-3.81,1.32-6.02,1.32
		c-2.21,0-4.19-0.43-5.94-1.3c-1.75-0.87-3.13-2.17-4.14-3.92c-1.01-1.75-1.52-3.87-1.52-6.38v-16.76H285.2z"/>
	<path class="st1" d="M321,219.04l-5.84-10.6h-1.64v10.6h-6.84v-28.08h11.48c2.21,0,4.1,0.39,5.66,1.16
		c1.56,0.77,2.73,1.83,3.5,3.18c0.77,1.35,1.16,2.85,1.16,4.5c0,1.87-0.53,3.53-1.58,5c-1.05,1.47-2.61,2.51-4.66,3.12l6.48,11.12
		H321z M313.52,203.6h4.24c1.25,0,2.19-0.31,2.82-0.92c0.63-0.61,0.94-1.48,0.94-2.6c0-1.07-0.31-1.91-0.94-2.52
		c-0.63-0.61-1.57-0.92-2.82-0.92h-4.24V203.6z"/>
	<path class="st1" d="M339.6,196.44v5.68h9.16v5.28h-9.16v6.16h10.36v5.48h-17.2v-28.08h17.2v5.48H339.6z"/>
</g>
</svg>
