<?xml version="1.0" encoding="utf-8"?>
<!-- Generator: Adobe Illustrator 27.3.1, SVG Export Plug-In . SVG Version: 6.00 Build 0)  -->
<svg version="1.1" id="Calque_1" xmlns="http://www.w3.org/2000/svg" xmlns:xlink="http://www.w3.org/1999/xlink" x="0px" y="0px"
	 viewBox="0 0 333.63 324.66" style="enable-background:new 0 0 333.63 324.66;" xml:space="preserve">
<style type="text/css">
	.st0{fill:#A34329;}
	.st1{fill:#FFFFFF;}
</style>
<circle class="st0" cx="180.21" cy="165.26" r="129"/>
<g>
	<path class="st1" d="M145.61,208.92c-1.63-0.67-2.93-1.65-3.9-2.96c-0.97-1.31-1.49-2.88-1.54-4.72h7.28
		c0.11,1.04,0.47,1.83,1.08,2.38c0.61,0.55,1.41,0.82,2.4,0.82c1.01,0,1.81-0.23,2.4-0.7c0.59-0.47,0.88-1.11,0.88-1.94
		c0-0.69-0.23-1.27-0.7-1.72c-0.47-0.45-1.04-0.83-1.72-1.12c-0.68-0.29-1.65-0.63-2.9-1c-1.81-0.56-3.29-1.12-4.44-1.68
		c-1.15-0.56-2.13-1.39-2.96-2.48c-0.83-1.09-1.24-2.52-1.24-4.28c0-2.61,0.95-4.66,2.84-6.14c1.89-1.48,4.36-2.22,7.4-2.22
		c3.09,0,5.59,0.74,7.48,2.22c1.89,1.48,2.91,3.54,3.04,6.18h-7.4c-0.05-0.91-0.39-1.62-1-2.14c-0.61-0.52-1.4-0.78-2.36-0.78
		c-0.83,0-1.49,0.22-2,0.66c-0.51,0.44-0.76,1.07-0.76,1.9c0,0.91,0.43,1.61,1.28,2.12s2.19,1.05,4,1.64
		c1.81,0.61,3.29,1.2,4.42,1.76c1.13,0.56,2.11,1.37,2.94,2.44c0.83,1.07,1.24,2.44,1.24,4.12c0,1.6-0.41,3.05-1.22,4.36
		c-0.81,1.31-1.99,2.35-3.54,3.12c-1.55,0.77-3.37,1.16-5.48,1.16C149.08,209.92,147.24,209.58,145.61,208.92z"/>
	<path class="st1" d="M183.05,204.68h-10.48l-1.68,4.96h-7.16l10.16-28.08h7.92l10.16,28.08h-7.24L183.05,204.68z M181.29,199.4
		l-3.48-10.28l-3.44,10.28H181.29z"/>
	<path class="st1" d="M220.17,209.64h-6.84l-11.44-17.32v17.32h-6.84v-28.08h6.84l11.44,17.4v-17.4h6.84V209.64z"/>
	<path class="st1" d="M245.33,181.56v5.48h-7.44v22.6h-6.84v-22.6h-7.44v-5.48H245.33z"/>
	<path class="st1" d="M255.61,187.04v5.68h9.16V198h-9.16v6.16h10.36v5.48h-17.2v-28.08h17.2v5.48H255.61z M261.85,175.92
		l-9.64,4.04v-4.72l9.64-4.64V175.92z"/>
</g>
<path class="st1" d="M207.04,68.16l54.78-51.66l-7.46,1.63l-50.01,47.17l-0.66-0.7l-1.57,1.48l0,0c-0.38-0.15-0.79-0.28-1.23-0.39
	l-18.22,16.12l-14.99-3.54L59.55,180.66l-9.46-10.03c-1.8-1.91-5.06-1.77-7.27,0.32l-4.04,3.81c-2.21,2.09-2.55,5.33-0.74,7.24
	l17.02,18.04l-14.51,14.45l-11.34-5.12l-0.58,1.2l26.29,28.87l1.89,0.85l-4.06-13.56l15.04-13.21l14.65,15.53
	c1.8,1.91,5.06,1.77,7.27-0.32l4.04-3.81c2.21-2.09,2.55-5.33,0.75-7.24l-8.52-9.04l107.51-103.5l-1.94-14.37l16.21-18.5
	c0,0-0.13-0.87-0.72-2l1.08-1.02L207.04,68.16z M183.48,85.77l4.52,4.79l0.26,0.27l1.3,13.3l-107,100.91l-8.83-9.36l2.23-2.1
	L64.36,181.3l15.85-14.95l11.58,12.28l2.23-2.1l-11.58-12.28l16.03-15.11l11.58,12.28l2.23-2.1l-11.58-12.28l15.85-14.95
	l11.58,12.28l2.23-2.1l-11.58-12.28l15.96-15.05l11.58,12.28l2.23-2.1l-11.58-12.28l15.85-14.95l11.58,12.28l2.23-2.1l-11.58-12.28
	l14.31-13.49l13.89,3.2L183.48,85.77z"/>
</svg>
