<?xml version="1.0" encoding="utf-8"?>
<!-- Generator: Adobe Illustrator 27.3.1, SVG Export Plug-In . SVG Version: 6.00 Build 0)  -->
<svg version="1.1" id="Calque_1" xmlns="http://www.w3.org/2000/svg" xmlns:xlink="http://www.w3.org/1999/xlink" x="0px" y="0px"
	 viewBox="0 0 366.06 392.59" style="enable-background:new 0 0 366.06 392.59;" xml:space="preserve">
<style type="text/css">
	.st0{fill:#BBBBBA;}
	.st1{fill-rule:evenodd;clip-rule:evenodd;fill:#BBBBBA;}
	.st2{fill:#020203;}
	.st3{font-family:'African';}
	.st4{font-size:132.9743px;}
	.st5{font-size:119.9363px;}
	.st6{font-size:51.5142px;}
	.st7{font-size:158.6758px;}
	.st8{fill:#A34329;}
	.st9{fill-rule:evenodd;clip-rule:evenodd;fill:#A34329;}
	.st10{fill:#FFFFFF;}
</style>
<path class="st0" d="M323.88,194.85c0,0,24.68-22.92,23.51-47.89l-1.47-2.06c0,0-9.4,5.58-15.87,4.41l-3.82,2.35
	c0,0-3.23-2.64-8.81,1.76c0,0-4.7-7.64-9.99-5.29l3.53-3.53c0,0-2.06-7.05-18.51-15.28c0,0-3.23-3.53-7.64-14.1l-6.46-4.11
	c0,0-0.88-6.17-1.76-12.63c0,0-3.53-4.7-7.35-5c0,0-0.59-2.64-0.88-8.23c0,0-3.23-0.29-7.93-10.58c0,0-5.58-9.7-7.05-10.58
	l-2.35-4.41l1.18-1.76c0,0,5.29,8.81,9.11,10.28c0,0,5-6.17-0.29-16.75c0,0-5.58,2.64-13.22-1.18c0,0-7.35,1.47-10.58,3.82
	c0,0-2.64-2.64-8.23-0.88c0,0,1.76-4.11-14.4-3.23l4.7-1.18l-9.7-1.76c0,0,1.18-0.88,0.29-2.64c-0.88-1.76-11.75-2.64-15.57,5.29
	c0,0,4.11,4.11-2.35,6.46c0,0-8.23-5.29-14.69-4.7c0,0-3.23-2.94-3.23-5.88c0,0-5.29-2.94-10.58-1.18c0,0-3.23-5.29-7.93-3.53
	c0,0-6.46-3.53,1.47-7.64c0,0,1.47-4.11-2.94-6.46c0,0,2.64-0.29,2.94-4.11c0,0-5.58-2.64-10.28,1.47c0,0-4.7-3.23-12.93,0.29
	c0,0-12.63-4.99-23.5,1.76h-5.29c0,0-4.51,20.55-13.62,11.15c0,0-1.97,1.05-4.62,6.93c0,0-9.52,2.38-15.4,3.85
	c0,0-10.44-5.47-9.85,0.99c0,0-5.88,7.05-15.28,8.81c11.68,9.23,7.45,9.15,2.03,10.21c0,0,0.15,0.13-3.08,9.24
	c3.41,0.38,55.05,14.44,0,16.17c0,0,15.94,3.89,1.54,23.86l10.01,9.24l-3.08,9.24c0,0-5.65-7.59-1.54,13.86
	c0,0-0.61,7.83,12.32,16.94c0,0,10.89,4.66,18.53,11.13c0,0,33.5-17.92,37.61,1.47c0,0-0.29,3.23,15.28-0.59
	c0,0,9.99,6.17,2.94,16.16c0,0,1.47,5.58-2.35,10.58c0,0,1.47,4.7,1.47,5.58c0,0,21.15,19.98,20.86,33.2l-2.06,1.76
	c0,0,5.88,10.87,3.82,15.87c-2.06,4.99-8.23,1.47-8.52,27.62c0,0,13.52,19.1,13.52,25.56c0,0-2.06,16.16,8.52,26.15
	c0,0,5.88,10.87,5.88,12.93c0,0,5.29,3.23,1.17,7.64c0,0,0.88,8.52,8.81,9.11c0,0,9.4-4.99,20.57-2.35
	c11.16,2.64,23.8-10.58,29.67-20.27l7.05-5.29c0,0,5.88-7.64,2.35-12.63c0,0,1.47-4.11,5.58-4.7c0,0,13.81,0,8.23-20.27
	c0,0-5.29-3.53,6.76-8.81c0,0,3.82-2.35,4.99-5.58c0,0,16.45-3.53,18.22-13.52c0,0-0.29-12.93-0.29-16.75c0,0,4.7-3.23-2.94-6.46
	c0,0,0.59-4.7-2.94-7.93c0,0,5.88-6.46-0.88-10.28c0,0,2.35-14.1,16.16-24.39C302.43,211.6,311.54,197.2,323.88,194.85z
	 M333.74,269.29c0,0-7.01,13.07-20.27,15.73c0,0-5.31,0.57-5.68,6.44c0,0,3.22,10.23-2.27,15.92c0,0-4.74,4.55-2.27,13.64
	c0,0-1.89,4.93,0.95,8.15c0,0,3.41,2.08,3.6,3.22c0,0,6.63-3.79,9.85-3.22c0,0,7.96-17.43,13.64-32.02c0,0,4.36-7.01,5.12-14.78
	l1.33,3.03c0,0,5.68-6.44-1.33-17.81C336.39,267.59,333.93,267.02,333.74,269.29z"/>
<g>
	<g>
		<path class="st1" d="M35.21,162.11c-0.5,0.26-1.52,0.22-1.57,0.78c-0.05,0.6,2.12,4.08,2.35,4.7c0.21,0.57,1.16,1.94,1.57,2.35
			c0.41,0.41,0.97,1.5,1.57,1.57c0.79,0.09,0.76,0.12,1.57,0c0.57-0.08,1.04,0.4,1.61,0.51c0.62,0.11,1.76,0.43,2.03,1.07
			c0.27,0.64-0.27,1.85-0.43,2.78c-0.18,1.01-0.68,2.22-0.64,3.31c0.03,1.09,0.12,2.38,0.85,3.21c0.91,1.03,2.88,2.37,4.59,2.99
			c1.91,0.69,4.53,1.22,6.84,1.18c2.74-0.05,7.18-0.84,9.62-1.5c1.8-0.49,3.78-0.92,5.52-1.6c1.87-0.73,4.17-1.51,5.63-1.85
			c0.82-0.19,1.75-1.03,2.59-1.05l0,0c2.04-0.04,5.37-5.4,8.61-5.4c3.96,0,16.62-14.35,19.25-10.78c4.24,5.77,17.36,1.36,23.15,4.43
			c5.74,3.04,17.96,4.93,23.75,1.98c10.51-5.36,19.99,22.79,23.45,12.13c3.46-10.66-19.69-29.75-23.88-38.31
			c-1.92-3.92-2.62-8.91-1.22-13.04c2.65-7.81,16.96-21.19,17.12-33.83c1.46-120.01-127.69-58.09-137-22.15
			c-2.02,7.77-4.13,11.85-4.52,16.77c-0.28,3.51,1.46,9.91,2.18,12.78c0.59,2.34,0.53,5.17,1,7.18c0.4,1.68,1.37,3.18,1.84,4.84
			c0.47,1.7,1.06,3.76,1,5.34c-0.05,1.46-0.78,2.82-1.34,4.17c-0.67,1.61-1.7,4.01-2.67,5.51c-0.86,1.32-2.42,2.42-3.17,3.51
			c-0.62,0.9-1.17,2.12-1.34,3c-0.15,0.77-0.18,1.75,0.33,2.34c0.58,0.67,2.12,1.09,3.17,1.67c1.11,0.61,2.45,1.42,3.51,2
			c0.94,0.52,2.45,0.53,2.84,1.51c0.39,0.97,0.11,3.02-0.5,4.34c-0.61,1.34-0.95,4.21-1.6,5.3c-0.51,0.85-1.02,3.98-0.78,4.7
			c0.24,0.73,1.53,1.29,2.35,1.57"/>
		<text transform="matrix(1 0 0 1 151.0958 211.2719)" class="st2 st3 st4">o</text>
		<text transform="matrix(1 0 0 1 198.1998 349.1928)" class="st0 st3 st5">a</text>
		<text transform="matrix(1 0 0 1 178.2315 104.4399)" class="st2 st3 st6">/</text>
		<text transform="matrix(-1 0 0 1 239.1558 104.2094)" class="st2 st3 st6">/</text>
		<text transform="matrix(1 0 0 1 64.6319 158.0815)" class="st2 st3 st7">L</text>
		<text transform="matrix(1 0 0 1 137.5074 312.4023)" class="st0 st3 st5">B</text>
		<text transform="matrix(1 0 0 1 257.7144 224.0214)" class="st0 st3 st4">-</text>
	</g>
	<g>
		<path class="st8" d="M314.17,189.47c0,0,24.68-22.92,23.51-47.89l-1.47-2.06c0,0-9.4,5.58-15.87,4.41l-3.82,2.35
			c0,0-3.23-2.64-8.81,1.76c0,0-4.7-7.64-9.99-5.29l3.53-3.53c0,0-2.06-7.05-18.51-15.28c0,0-3.23-3.53-7.64-14.1l-6.46-4.11
			c0,0-0.88-6.17-1.76-12.63c0,0-3.53-4.7-7.35-5c0,0-0.59-2.64-0.88-8.23c0,0-3.23-0.29-7.93-10.58c0,0-5.58-9.7-7.05-10.58
			l-2.35-4.41l1.18-1.76c0,0,5.29,8.81,9.11,10.28c0,0,5-6.17-0.29-16.75c0,0-5.58,2.64-13.22-1.18c0,0-7.35,1.47-10.58,3.82
			c0,0-2.64-2.64-8.23-0.88c0,0,1.76-4.11-14.4-3.23l4.7-1.18l-9.7-1.76c0,0,1.18-0.88,0.29-2.64c-0.88-1.76-11.75-2.64-15.57,5.29
			c0,0,4.11,4.11-2.35,6.46c0,0-8.23-5.29-14.69-4.7c0,0-3.23-2.94-3.23-5.88c0,0-5.29-2.94-10.58-1.18c0,0-3.23-5.29-7.93-3.53
			c0,0-6.46-3.53,1.47-7.64c0,0,1.47-4.11-2.94-6.46c0,0,2.64-0.29,2.94-4.11c0,0-5.58-2.64-10.28,1.47c0,0-4.7-3.23-12.93,0.29
			c0,0-12.63-4.99-23.5,1.76h-5.29c0,0-4.51,20.55-13.62,11.15c0,0-1.97,1.05-4.62,6.93c0,0-9.52,2.38-15.4,3.85
			c0,0-10.44-5.47-9.85,0.99c0,0-5.88,7.05-15.28,8.81c11.68,9.23,7.45,9.15,2.03,10.21c0,0,0.15,0.13-3.08,9.24
			c3.41,0.38,55.05,14.44,0,16.17c0,0,15.94,3.89,1.54,23.86l10.01,9.24l-3.08,9.24c0,0-5.65-7.59-1.54,13.86
			c0,0-0.61,7.83,12.32,16.94c0,0,10.89,4.66,18.53,11.13c0,0,33.5-17.92,37.61,1.47c0,0-0.29,3.23,15.28-0.59
			c0,0,9.99,6.17,2.94,16.16c0,0,1.47,5.58-2.35,10.58c0,0,1.47,4.7,1.47,5.58c0,0,21.15,19.98,20.86,33.2l-2.06,1.76
			c0,0,5.88,10.87,3.82,15.87c-2.06,4.99-8.23,1.47-8.52,27.62c0,0,13.52,19.1,13.52,25.56c0,0-2.06,16.16,8.52,26.15
			c0,0,5.88,10.87,5.88,12.93c0,0,5.29,3.23,1.17,7.64c0,0,0.88,8.52,8.81,9.11c0,0,9.4-4.99,20.57-2.35
			c11.16,2.64,23.8-10.58,29.67-20.27l7.05-5.29c0,0,5.88-7.64,2.35-12.63c0,0,1.47-4.11,5.58-4.7c0,0,13.81,0,8.23-20.27
			c0,0-5.29-3.53,6.76-8.81c0,0,3.82-2.35,4.99-5.58c0,0,16.45-3.53,18.22-13.52c0,0-0.29-12.93-0.29-16.75c0,0,4.7-3.23-2.94-6.46
			c0,0,0.59-4.7-2.94-7.93c0,0,5.88-6.46-0.88-10.28c0,0,2.35-14.1,16.16-24.39C292.73,206.21,301.83,191.82,314.17,189.47z
			 M324.03,263.9c0,0-7.01,13.07-20.27,15.73c0,0-5.31,0.57-5.68,6.44c0,0,3.22,10.23-2.27,15.92c0,0-4.74,4.55-2.27,13.64
			c0,0-1.89,4.93,0.95,8.15c0,0,3.41,2.08,3.6,3.22c0,0,6.63-3.79,9.85-3.22c0,0,7.96-17.43,13.64-32.02c0,0,4.36-7.01,5.12-14.78
			l1.33,3.03c0,0,5.68-6.44-1.33-17.81C326.69,262.2,324.22,261.63,324.03,263.9z"/>
		<path class="st9" d="M25.51,156.72c-0.5,0.26-1.52,0.22-1.57,0.78c-0.05,0.6,2.12,4.08,2.35,4.7c0.21,0.57,1.16,1.94,1.57,2.35
			c0.41,0.41,0.97,1.5,1.57,1.57c0.79,0.09,0.76,0.12,1.57,0c0.57-0.08,1.04,0.4,1.61,0.51c0.62,0.11,1.76,0.43,2.03,1.07
			c0.27,0.64-0.27,1.85-0.43,2.78c-0.18,1.01-0.68,2.22-0.64,3.31c0.03,1.09,0.12,2.38,0.85,3.21c0.91,1.03,2.88,2.37,4.59,2.99
			c1.91,0.69,4.53,1.22,6.84,1.18c2.74-0.05,7.18-0.84,9.62-1.5c1.8-0.49,3.78-0.92,5.52-1.6c1.87-0.73,4.17-1.51,5.63-1.85
			c0.82-0.19,1.75-1.03,2.59-1.05l0,0c2.04-0.04,5.37-5.4,8.61-5.4c3.96,0,16.62-14.35,19.25-10.78c4.24,5.77,17.36,1.36,23.15,4.43
			c5.74,3.04,17.96,4.93,23.75,1.98c10.51-5.36,19.99,22.79,23.45,12.13c3.46-10.66-19.69-29.75-23.88-38.31
			c-1.92-3.92-2.62-8.91-1.22-13.04c2.65-7.81,16.96-21.19,17.12-33.83c1.46-120.01-127.69-58.09-137-22.15
			c-2.02,7.77-4.13,11.85-4.52,16.77c-0.28,3.51,1.46,9.91,2.18,12.78c0.59,2.34,0.53,5.17,1,7.18c0.4,1.68,1.37,3.18,1.84,4.84
			c0.47,1.7,1.06,3.76,1,5.34c-0.05,1.46-0.78,2.82-1.34,4.17c-0.67,1.61-1.7,4.01-2.67,5.51c-0.86,1.32-2.42,2.42-3.17,3.51
			c-0.62,0.9-1.17,2.12-1.34,3c-0.15,0.77-0.18,1.75,0.33,2.34c0.58,0.67,2.12,1.09,3.17,1.67c1.11,0.61,2.45,1.42,3.51,2
			c0.94,0.52,2.45,0.53,2.84,1.51c0.39,0.97,0.11,3.02-0.5,4.34c-0.61,1.34-0.95,4.21-1.6,5.3c-0.51,0.85-1.02,3.98-0.78,4.7
			c0.24,0.73,1.53,1.29,2.35,1.57"/>
		<text transform="matrix(1 0 0 1 141.3878 205.8832)" class="st10 st3 st4">o</text>
		<text transform="matrix(1 0 0 1 188.4918 343.8041)" class="st10 st3 st5">a</text>
		<text transform="matrix(1 0 0 1 168.5235 99.0512)" class="st10 st3 st6">/</text>
		<text transform="matrix(-1 0 0 1 229.4478 98.8207)" class="st10 st3 st6">/</text>
		<text transform="matrix(1 0 0 1 54.9239 152.6928)" class="st10 st3 st7">L</text>
		<text transform="matrix(1 0 0 1 127.7994 307.0136)" class="st10 st3 st5">B</text>
		<text transform="matrix(1 0 0 1 248.0064 218.6328)" class="st10 st3 st4">-</text>
	</g>
</g>
</svg>
