<?xml version="1.0" encoding="utf-8"?>
<!-- Generator: Adobe Illustrator 27.3.1, SVG Export Plug-In . SVG Version: 6.00 Build 0)  -->
<svg version="1.1" xmlns="http://www.w3.org/2000/svg" xmlns:xlink="http://www.w3.org/1999/xlink" x="0px" y="0px"
	 viewBox="0 0 366.06 392.59" style="enable-background:new 0 0 366.06 392.59;" xml:space="preserve">
<style type="text/css">
	.st0{fill:#05060D;}
	.st1{fill-rule:evenodd;clip-rule:evenodd;fill:#05060D;}
	.st2{fill:#A24228;}
	.st3{fill-rule:evenodd;clip-rule:evenodd;fill:#A24228;}
	.st4{fill:#FFFFFF;}
</style>
<g id="Calque_2">
	<path class="st0" d="M323.88,194.85c0,0,24.68-22.92,23.51-47.89l-1.47-2.06c0,0-9.4,5.58-15.87,4.41l-3.82,2.35
		c0,0-3.23-2.64-8.81,1.76c0,0-4.7-7.64-9.99-5.29l3.53-3.53c0,0-2.06-7.05-18.51-15.28c0,0-3.23-3.53-7.64-14.1l-6.46-4.11
		c0,0-0.88-6.17-1.76-12.63c0,0-3.53-4.7-7.35-5c0,0-0.59-2.64-0.88-8.23c0,0-3.23-0.29-7.93-10.58c0,0-5.58-9.7-7.05-10.58
		l-2.35-4.41l1.18-1.76c0,0,5.29,8.81,9.11,10.28c0,0,5-6.17-0.29-16.75c0,0-5.58,2.64-13.22-1.18c0,0-7.35,1.47-10.58,3.82
		c0,0-2.64-2.64-8.23-0.88c0,0,1.76-4.11-14.4-3.23l4.7-1.18l-9.7-1.76c0,0,1.18-0.88,0.29-2.64c-0.88-1.76-11.75-2.64-15.57,5.29
		c0,0,4.11,4.11-2.35,6.46c0,0-8.23-5.29-14.69-4.7c0,0-3.23-2.94-3.23-5.88c0,0-5.29-2.94-10.58-1.18c0,0-3.23-5.29-7.93-3.53
		c0,0-6.46-3.53,1.47-7.64c0,0,1.47-4.11-2.94-6.46c0,0,2.64-0.29,2.94-4.11c0,0-5.58-2.64-10.28,1.47c0,0-4.7-3.23-12.93,0.29
		c0,0-12.63-4.99-23.5,1.76h-5.29c0,0-4.51,20.55-13.62,11.15c0,0-1.97,1.05-4.62,6.93c0,0-9.52,2.38-15.4,3.85
		c0,0-10.44-5.47-9.85,0.99c0,0-5.88,7.05-15.28,8.81c11.68,9.23,7.45,9.15,2.03,10.21c0,0,0.15,0.13-3.08,9.24
		c3.41,0.38,55.05,14.44,0,16.17c0,0,15.94,3.89,1.54,23.86l10.01,9.24l-3.08,9.24c0,0-5.65-7.59-1.54,13.86
		c0,0-0.61,7.83,12.32,16.94c0,0,10.89,4.66,18.53,11.13c0,0,33.5-17.92,37.61,1.47c0,0-0.29,3.23,15.28-0.59
		c0,0,9.99,6.17,2.94,16.16c0,0,1.47,5.58-2.35,10.58c0,0,1.47,4.7,1.47,5.58c0,0,21.15,19.98,20.86,33.2l-2.06,1.76
		c0,0,5.88,10.87,3.82,15.87c-2.06,4.99-8.23,1.47-8.52,27.62c0,0,13.52,19.1,13.52,25.56c0,0-2.06,16.16,8.52,26.15
		c0,0,5.88,10.87,5.88,12.93c0,0,5.29,3.23,1.17,7.64c0,0,0.88,8.52,8.81,9.11c0,0,9.4-4.99,20.57-2.35
		c11.16,2.64,23.8-10.58,29.67-20.27l7.05-5.29c0,0,5.88-7.64,2.35-12.63c0,0,1.47-4.11,5.58-4.7c0,0,13.81,0,8.23-20.27
		c0,0-5.29-3.53,6.76-8.81c0,0,3.82-2.35,4.99-5.58c0,0,16.45-3.53,18.22-13.52c0,0-0.29-12.93-0.29-16.75c0,0,4.7-3.23-2.94-6.46
		c0,0,0.59-4.7-2.94-7.93c0,0,5.88-6.46-0.88-10.28c0,0,2.35-14.1,16.16-24.39C302.43,211.6,311.54,197.2,323.88,194.85z
		 M333.74,269.29c0,0-7.01,13.07-20.27,15.73c0,0-5.31,0.57-5.68,6.44c0,0,3.22,10.23-2.27,15.92c0,0-4.74,4.55-2.27,13.64
		c0,0-1.89,4.93,0.95,8.15c0,0,3.41,2.08,3.6,3.22c0,0,6.63-3.79,9.85-3.22c0,0,7.96-17.43,13.64-32.02c0,0,4.36-7.01,5.12-14.78
		l1.33,3.03c0,0,5.68-6.44-1.33-17.81C336.39,267.59,333.93,267.02,333.74,269.29z"/>
	<path class="st1" d="M35.21,162.11c-0.5,0.26-1.52,0.22-1.57,0.78c-0.05,0.6,2.12,4.08,2.35,4.7c0.21,0.57,1.16,1.94,1.57,2.35
		c0.41,0.41,0.97,1.5,1.57,1.57c0.79,0.09,0.76,0.12,1.57,0c0.57-0.08,1.04,0.4,1.61,0.51c0.62,0.11,1.76,0.43,2.03,1.07
		c0.27,0.64-0.27,1.85-0.43,2.78c-0.18,1.01-0.68,2.22-0.64,3.31c0.03,1.09,0.12,2.38,0.85,3.21c0.91,1.03,2.88,2.37,4.59,2.99
		c1.91,0.69,4.53,1.22,6.84,1.18c2.74-0.05,7.18-0.84,9.62-1.5c1.8-0.49,3.78-0.92,5.52-1.6c1.87-0.73,4.17-1.51,5.63-1.85
		c0.82-0.19,1.75-1.03,2.59-1.05l0,0c2.04-0.04,5.37-5.4,8.61-5.4c3.96,0,16.62-14.35,19.25-10.78c4.24,5.77,17.36,1.36,23.15,4.43
		c5.74,3.04,17.96,4.93,23.75,1.98c10.51-5.36,19.99,22.79,23.45,12.13c3.46-10.66-19.69-29.75-23.88-38.31
		c-1.92-3.92-2.62-8.91-1.22-13.04c2.65-7.81,16.96-21.19,17.12-33.83c1.46-120.01-127.69-58.09-137-22.15
		c-2.02,7.77-4.13,11.85-4.52,16.77c-0.28,3.51,1.46,9.91,2.18,12.78c0.59,2.34,0.53,5.17,1,7.18c0.4,1.68,1.37,3.18,1.84,4.84
		c0.47,1.7,1.06,3.76,1,5.34c-0.05,1.46-0.78,2.82-1.34,4.17c-0.67,1.61-1.7,4.01-2.67,5.51c-0.86,1.32-2.42,2.42-3.17,3.51
		c-0.62,0.9-1.17,2.12-1.34,3c-0.15,0.77-0.18,1.75,0.33,2.34c0.58,0.67,2.12,1.09,3.17,1.67c1.11,0.61,2.45,1.42,3.51,2
		c0.94,0.52,2.45,0.53,2.84,1.51c0.39,0.97,0.11,3.02-0.5,4.34c-0.61,1.34-0.95,4.21-1.6,5.3c-0.51,0.85-1.02,3.98-0.78,4.7
		c0.24,0.73,1.53,1.29,2.35,1.57"/>
	<g>
		<path class="st0" d="M308.78,175.62c-0.27,1.24-0.53,2.51-0.8,3.79c-0.27,1.29-0.53,2.55-0.8,3.79c-0.53,2.48-1.04,4.99-1.53,7.51
			c-0.49,2.53-1.04,5.08-1.66,7.65l-1.6,1.2l-42.02,0.67l-0.93-1.86l10.9-24.73l37.5,0.27L308.78,175.62z M292.62,184.59
			c-1.38-0.22-2.82-0.33-4.32-0.33c-0.62,0-1.24,0-1.86,0c-0.62,0-1.24,0.05-1.86,0.13c-0.18,0-0.36,0-0.53,0c-0.18,0-0.31,0-0.4,0
			c-0.8,0-1.6,0.02-2.39,0.07c-0.8,0.05-1.55,0.07-2.26,0.07c-0.18,0-0.38,0-0.6,0c-0.22,0-0.42,0-0.6,0
			c-0.44,0.09-0.84,0.31-1.2,0.66c-0.36,0.36-0.53,0.84-0.53,1.46c0,0.09,0,0.18,0,0.27c0,0.09,0,0.18,0,0.27
			c0.71-0.09,1.44-0.13,2.19-0.13c0.75,0,1.48,0,2.19,0c0.62,0,1.24,0,1.86,0c0.62,0,1.24,0,1.86,0c0.53,0.09,1.11,0.13,1.73,0.13
			c0.62,0,1.24,0,1.86,0c1.51,0,2.97-0.09,4.39-0.27c1.42-0.18,2.79-0.49,4.12-0.93C295.21,185.28,293.99,184.82,292.62,184.59z"/>
	</g>
	<g>
		<path class="st0" d="M273.22,271.11c3.32,8.32,6.9,17.67,10.73,28.06c0.32,0.72,0.62,1.46,0.9,2.22c0.28,0.76,0.54,1.5,0.78,2.22
			c3.84,10.4,7.27,20.05,10.31,28.96c3.04,8.92,4.64,14.25,4.8,16.01h-29.38c-0.64-0.72-1.24-1.54-1.8-2.46
			c-0.56-0.92-1.04-1.82-1.44-2.7c-0.8-1.92-1.56-4.44-2.28-7.56c-1.68,0.32-3.58,0.52-5.7,0.6c-2.12,0.08-4.3,0.12-6.54,0.12
			c-0.16,0-0.32,0-0.48,0c-0.16,0-0.32,0-0.48,0c-1.28,0-2.56-0.02-3.84-0.06c-1.28-0.04-2.52-0.06-3.72-0.06
			c-1.28,0-2.54-0.02-3.78-0.06c-1.24-0.04-2.34-0.06-3.3-0.06c-0.32,0-0.64,0-0.96,0c-0.32,0-0.64,0-0.96,0
			c-0.32,0.56-0.62,1.38-0.9,2.46c-0.28,1.08-0.62,2.18-1.02,3.3c-0.48,1.76-1.02,3.34-1.62,4.74c-0.6,1.4-1.26,2.02-1.98,1.86
			l-26.39-0.36c-0.08-0.08-0.14-0.2-0.18-0.36c-0.04-0.16-0.06-0.36-0.06-0.6c0-2.48,1.94-8.7,5.82-18.65
			c3.88-9.95,8.17-20.65,12.89-32.08c2.88-7.2,5.7-14.19,8.46-20.99c2.76-6.79,5.02-12.67,6.78-17.63c1.36,0.08,3.1,0.16,5.22,0.24
			c2.12,0.08,4.38,0.12,6.78,0.12c0.32,0,0.64,0,0.96,0c0.32,0,0.64,0,0.96,0c1.52,0,3.02-0.02,4.5-0.06
			c1.48-0.04,2.86-0.06,4.14-0.06c1.6,0,2.96-0.02,4.08-0.06c1.12-0.04,1.92-0.06,2.4-0.06c0.16,0,0.32,0,0.48,0
			C267.96,258.48,269.9,262.8,273.22,271.11z M255.29,269.73c-0.8-0.04-1.6-0.06-2.4-0.06c-0.64,0-1.3-0.02-1.98-0.06
			c-0.68-0.04-1.42-0.22-2.22-0.54c-0.32,0.72-0.64,1.44-0.96,2.16c-0.32,0.72-0.64,1.4-0.96,2.04
			c-4.64,10.63-9.22,21.29-13.73,31.96c-4.52,10.67-8.74,21.37-12.65,32.08c0.08,0,0.16,0,0.24,0c0.08,0,0.16,0,0.24,0
			c0.32,0,0.54,0.06,0.66,0.18s0.22,0.26,0.3,0.42c0,0.08,0.02,0.16,0.06,0.24c0.04,0.08,0.06,0.16,0.06,0.24c0,0.08,0,0.04,0-0.12
			c0-0.16,0.12-0.52,0.36-1.08c0.16-0.48,0.48-1.22,0.96-2.22c0.48-1,0.96-2.06,1.44-3.18c0.08-0.24,0.16-0.44,0.24-0.6
			c0.08-0.16,0.16-0.36,0.24-0.6c0.56-1.04,1.06-1.98,1.5-2.82c0.44-0.84,0.82-1.42,1.14-1.74l48.93-0.36
			c1.12,1.76,2,3.28,2.64,4.56c0.32,0.64,0.64,1.28,0.96,1.92c0.32,0.64,0.6,1.28,0.84,1.92c0.16,0.56,0.32,1.12,0.48,1.68
			c0.16,0.56,0.28,1.08,0.36,1.56c0.4,0.32,0.82,0.44,1.26,0.36c0.44-0.08,0.9-0.44,1.38-1.08c-2.88-7.68-5.88-15.35-9-23.03
			c-3.12-7.68-6.28-15.31-9.48-22.91c-1.44-3.44-2.86-6.85-4.26-10.25c-1.4-3.4-2.78-6.78-4.14-10.13
			C256.93,269.96,256.09,269.78,255.29,269.73z M275.92,323.29h-46.06c0.96-2.72,2.16-5.9,3.6-9.54c1.44-3.64,2.92-7.33,4.44-11.09
			c0.16-0.4,0.34-0.82,0.54-1.26c0.2-0.44,0.38-0.9,0.54-1.38c2.8-6.8,6.56-15.59,11.27-26.39c0.24-0.64,0.58-1.04,1.02-1.2
			c0.44-0.16,0.9-0.2,1.38-0.12c0.16,0,0.3,0,0.42,0c0.12,0,0.22,0,0.3,0c0.24,0,0.48,0,0.72,0c0.24,0,0.48,0,0.72,0
			c0.16,0,0.3,0,0.42,0c0.12,0,0.22,0,0.3,0L275.92,323.29z M259.79,312.19c-0.36-1.24-0.74-2.54-1.14-3.9
			c-0.72-2-1.6-3.98-2.64-5.94c-1.04-1.96-2.24-3.7-3.6-5.22c-0.4,0.88-0.82,1.74-1.26,2.58c-0.44,0.84-0.9,1.7-1.38,2.58
			c-1.28,2.24-2.42,4.54-3.42,6.9c-1,2.36-1.5,4.78-1.5,7.26c0.48-0.08,0.94-0.14,1.38-0.18c0.44-0.04,0.86-0.06,1.26-0.06
			c0.72,0,1.42,0.04,2.1,0.12c0.68,0.08,1.34,0.16,1.98,0.24c0.32,0.08,0.66,0.14,1.02,0.18c0.36,0.04,0.7,0.06,1.02,0.06
			c0.32,0,0.64,0.02,0.96,0.06c0.32,0.04,0.64,0.06,0.96,0.06c0.8,0,1.62-0.08,2.46-0.24c0.84-0.16,1.7-0.44,2.58-0.84
			C260.41,314.65,260.15,313.43,259.79,312.19z"/>
	</g>
	<g>
		<path class="st0" d="M148.78,222.09c1.84,0.16,3.68,0.24,5.52,0.24c2.08,0,4.2-0.06,6.36-0.18c2.16-0.12,4.36-0.3,6.6-0.54
			c2.16-0.16,4.32-0.3,6.48-0.42c2.16-0.12,4.28-0.18,6.36-0.18c5.36,0,10.37,0.76,15.05,2.28c4.68,1.52,8.61,4.72,11.81,9.6
			c0.24,0.32,0.5,0.62,0.78,0.9c0.28,0.28,0.54,0.58,0.78,0.9c0.4,0.4,0.78,0.8,1.14,1.2c0.36,0.4,0.74,0.8,1.14,1.2
			c1.68,1.76,3.24,3.6,4.68,5.52c1.44,1.92,2.12,4,2.04,6.24c0,0.8-0.1,1.64-0.3,2.52c-0.2,0.88-0.58,1.76-1.14,2.64l-11.15,15.11
			c0.72,1.2,1.58,2.38,2.58,3.54c1,1.16,2.02,2.3,3.06,3.42c0.08,0.08,0.14,0.16,0.18,0.24c0.04,0.08,0.1,0.16,0.18,0.24
			c1.92,2,3.68,4.06,5.28,6.18c1.6,2.12,2.4,4.46,2.4,7.02c0,0.8-0.1,1.64-0.3,2.52c-0.2,0.88-0.5,1.76-0.9,2.64
			c-3.2,7.36-7.62,12.17-13.25,14.45c-5.64,2.28-11.81,3.42-18.53,3.42c-2.72,0-5.46-0.1-8.22-0.3c-2.76-0.2-5.54-0.42-8.34-0.66
			c-2.88-0.24-5.7-0.48-8.46-0.72c-2.76-0.24-5.5-0.36-8.22-0.36c-1.6,0-3.16,0.06-4.68,0.18c-1.52,0.12-3.04,0.3-4.56,0.54
			l-1.8-2.64l1.2-87.07l0.96-0.36C145.18,221.69,146.94,221.93,148.78,222.09z M180.14,230.97c-3.4-0.48-6.82-0.72-10.25-0.72
			c-2.4,0-4.82,0.14-7.26,0.42c-2.44,0.28-4.9,0.74-7.38,1.38v68.24c1.68,0,3.38,0.04,5.1,0.12c1.72,0.08,3.42,0.12,5.1,0.12
			c1.76,0.08,3.48,0.16,5.16,0.24c1.68,0.08,3.36,0.12,5.04,0.12c3.2,0,6.32-0.18,9.35-0.54c3.04-0.36,6-1.06,8.88-2.1
			c2.08-0.64,3.8-1.86,5.16-3.66c1.36-1.8,2.2-3.7,2.52-5.7c0-0.24,0.02-0.46,0.06-0.66c0.04-0.2,0.06-0.42,0.06-0.66
			c-0.4-3.04-1.62-5.94-3.66-8.7c-2.04-2.76-4.26-5.26-6.66-7.5c-0.96-0.88-1.92-1.72-2.88-2.52c-0.96-0.8-1.84-1.52-2.64-2.16
			c3.36-1.04,6.4-2.78,9.12-5.22c2.72-2.44,4.96-5.22,6.72-8.34c0.16-0.56,0.26-1.08,0.3-1.56c0.04-0.48,0.06-0.96,0.06-1.44
			c0-2.4-0.72-4.52-2.16-6.36c-1.44-1.84-3-3.64-4.68-5.4c-0.16-0.08-0.28-0.18-0.36-0.3c-0.08-0.12-0.16-0.22-0.24-0.3
			c-0.8-0.8-1.58-1.6-2.34-2.4c-0.76-0.8-1.42-1.64-1.98-2.52C186.92,232.09,183.54,231.45,180.14,230.97z M161.31,233.72
			c0.76,0.08,1.54,0.12,2.34,0.12c1.12,0,2.26-0.04,3.42-0.12c1.16-0.08,2.34-0.16,3.54-0.24c1.2-0.08,2.38-0.16,3.54-0.24
			c1.16-0.08,2.3-0.12,3.42-0.12c2.72,0,5.3,0.36,7.74,1.08c2.44,0.72,4.54,2.24,6.3,4.56c0.32,0.4,0.66,0.78,1.02,1.14
			s0.74,0.78,1.14,1.26c1.28,1.36,2.44,2.84,3.48,4.44c1.04,1.6,1.56,3.24,1.56,4.92c0,0.24-0.02,0.46-0.06,0.66
			c-0.04,0.2-0.06,0.42-0.06,0.66c-0.08,0.24-0.16,0.46-0.24,0.66c-0.08,0.2-0.16,0.42-0.24,0.66c-1.28,2.4-2.92,4.62-4.92,6.66
			c-2,2.04-4.28,3.66-6.84,4.86c-1.6,0.16-3.2,0.3-4.8,0.42c-1.6,0.12-3.2,0.18-4.8,0.18c-0.8,0.08-1.6,0.12-2.4,0.12
			c-0.8,0-1.6,0-2.4,0c-2.24,0-4.54-0.06-6.9-0.18c-2.36-0.12-4.78-0.3-7.26-0.54l1.08-31.18
			C159.77,233.56,160.55,233.65,161.31,233.72z M160.65,267.91c0.8,0,1.6,0,2.4,0c1.44,0,2.88,0.02,4.32,0.06
			c1.44,0.04,2.92,0.1,4.44,0.18c5.12,0.4,10.03,1.52,14.75,3.36c4.72,1.84,8.2,5.48,10.43,10.91c0.4,0.8,0.74,1.68,1.02,2.64
			c0.28,0.96,0.42,1.96,0.42,3c0,0.64-0.1,1.28-0.3,1.92c-0.2,0.64-0.58,1.24-1.14,1.8c-2.72,2.56-5.8,4.28-9.23,5.16
			c-3.44,0.88-7.04,1.32-10.79,1.32c-0.72,0-1.44-0.02-2.16-0.06c-0.72-0.04-1.44-0.06-2.16-0.06c-1.28-0.08-2.56-0.18-3.84-0.3
			c-1.28-0.12-2.56-0.22-3.84-0.3c-1.2-0.08-2.4-0.18-3.6-0.3c-1.2-0.12-2.36-0.22-3.48-0.3l0.48-29.02
			C159.1,267.91,159.85,267.91,160.65,267.91z M179.12,242.48c-1.68-0.48-3.44-0.72-5.28-0.72c-0.4,0-0.84,0.02-1.32,0.06
			c-0.48,0.04-0.96,0.1-1.44,0.18c-0.08,0.24-0.16,0.5-0.24,0.78c-0.08,0.28-0.16,0.58-0.24,0.9c-0.16,0.64-0.32,1.32-0.48,2.04
			c-0.16,0.72-0.32,1.44-0.48,2.16c-0.08,0.56-0.14,1.1-0.18,1.62c-0.04,0.52-0.06,1.02-0.06,1.5c0,1.04,0.14,2.02,0.42,2.94
			c0.28,0.92,0.7,1.82,1.26,2.7c0.72,0.08,1.44,0.14,2.16,0.18c0.72,0.04,1.44,0.02,2.16-0.06c2.08,0,4.04-0.3,5.88-0.9
			c1.84-0.6,3.36-1.9,4.56-3.9c0.08-0.4,0.12-0.82,0.12-1.26c0-0.44,0-0.82,0-1.14c0-0.96-0.14-1.86-0.42-2.7
			c-0.28-0.84-0.86-1.58-1.74-2.22C182.36,243.68,180.8,242.96,179.12,242.48z M180.14,277.8c-2.44-1.4-5.14-2.1-8.1-2.1
			c-0.08,0-0.2,0-0.36,0c-0.16,0-0.28,0-0.36,0c-0.16,0.08-0.3,0.12-0.42,0.12c-0.12,0-0.26,0-0.42,0
			c-0.32,0.96-0.58,2.04-0.78,3.24c-0.2,1.2-0.3,2.44-0.3,3.72c0,1.2,0.1,2.38,0.3,3.54c0.2,1.16,0.46,2.26,0.78,3.3
			c0.4,0.08,0.76,0.14,1.08,0.18c0.32,0.04,0.64,0.06,0.96,0.06c0.88,0,1.72-0.1,2.52-0.3c0.8-0.2,1.6-0.42,2.4-0.66
			c0.16-0.08,0.3-0.14,0.42-0.18c0.12-0.04,0.26-0.06,0.42-0.06c0.64-0.24,1.32-0.42,2.04-0.54s1.44-0.18,2.16-0.18
			c0.16,0,0.3,0,0.42,0c0.12,0,0.22,0,0.3,0c0.16-0.08,0.36-0.2,0.6-0.36c0.24-0.16,0.48-0.32,0.72-0.48
			c0.48-0.32,0.94-0.7,1.38-1.14c0.44-0.44,0.62-0.9,0.54-1.38c0-0.24-0.04-0.48-0.12-0.72c-0.08-0.24-0.24-0.48-0.48-0.72
			C184.48,280.98,182.58,279.2,180.14,277.8z"/>
	</g>
</g>
<g id="Calque_1">
	<g>
		<g>
			<path class="st2" d="M314.17,189.47c0,0,24.68-22.92,23.51-47.89l-1.47-2.06c0,0-9.4,5.58-15.87,4.41l-3.82,2.35
				c0,0-3.23-2.64-8.81,1.76c0,0-4.7-7.64-9.99-5.29l3.53-3.53c0,0-2.06-7.05-18.51-15.28c0,0-3.23-3.53-7.64-14.1l-6.46-4.11
				c0,0-0.88-6.17-1.76-12.63c0,0-3.53-4.7-7.35-5c0,0-0.59-2.64-0.88-8.23c0,0-3.23-0.29-7.93-10.58c0,0-5.58-9.7-7.05-10.58
				l-2.35-4.41l1.18-1.76c0,0,5.29,8.81,9.11,10.28c0,0,5-6.17-0.29-16.75c0,0-5.58,2.64-13.22-1.18c0,0-7.35,1.47-10.58,3.82
				c0,0-2.64-2.64-8.23-0.88c0,0,1.76-4.11-14.4-3.23l4.7-1.18l-9.7-1.76c0,0,1.18-0.88,0.29-2.64c-0.88-1.76-11.75-2.64-15.57,5.29
				c0,0,4.11,4.11-2.35,6.46c0,0-8.23-5.29-14.69-4.7c0,0-3.23-2.94-3.23-5.88c0,0-5.29-2.94-10.58-1.18c0,0-3.23-5.29-7.93-3.53
				c0,0-6.46-3.53,1.47-7.64c0,0,1.47-4.11-2.94-6.46c0,0,2.64-0.29,2.94-4.11c0,0-5.58-2.64-10.28,1.47c0,0-4.7-3.23-12.93,0.29
				c0,0-12.63-4.99-23.5,1.76h-5.29c0,0-4.51,20.55-13.62,11.15c0,0-1.97,1.05-4.62,6.93c0,0-9.52,2.38-15.4,3.85
				c0,0-10.44-5.47-9.85,0.99c0,0-5.88,7.05-15.28,8.81c11.68,9.23,7.45,9.15,2.03,10.21c0,0,0.15,0.13-3.08,9.24
				c3.41,0.38,55.05,14.44,0,16.17c0,0,15.94,3.89,1.54,23.86l10.01,9.24l-3.08,9.24c0,0-5.65-7.59-1.54,13.86
				c0,0-0.61,7.83,12.32,16.94c0,0,10.89,4.66,18.53,11.13c0,0,33.5-17.92,37.61,1.47c0,0-0.29,3.23,15.28-0.59
				c0,0,9.99,6.17,2.94,16.16c0,0,1.47,5.58-2.35,10.58c0,0,1.47,4.7,1.47,5.58c0,0,21.15,19.98,20.86,33.2l-2.06,1.76
				c0,0,5.88,10.87,3.82,15.87c-2.06,4.99-8.23,1.47-8.52,27.62c0,0,13.52,19.1,13.52,25.56c0,0-2.06,16.16,8.52,26.15
				c0,0,5.88,10.87,5.88,12.93c0,0,5.29,3.23,1.17,7.64c0,0,0.88,8.52,8.81,9.11c0,0,9.4-4.99,20.57-2.35
				c11.16,2.64,23.8-10.58,29.67-20.27l7.05-5.29c0,0,5.88-7.64,2.35-12.63c0,0,1.47-4.11,5.58-4.7c0,0,13.81,0,8.23-20.27
				c0,0-5.29-3.53,6.76-8.81c0,0,3.82-2.35,4.99-5.58c0,0,16.45-3.53,18.22-13.52c0,0-0.29-12.93-0.29-16.75c0,0,4.7-3.23-2.94-6.46
				c0,0,0.59-4.7-2.94-7.93c0,0,5.88-6.46-0.88-10.28c0,0,2.35-14.1,16.16-24.39C292.73,206.21,301.83,191.82,314.17,189.47z
				 M324.03,263.9c0,0-7.01,13.07-20.27,15.73c0,0-5.31,0.57-5.68,6.44c0,0,3.22,10.23-2.27,15.92c0,0-4.74,4.55-2.27,13.64
				c0,0-1.89,4.93,0.95,8.15c0,0,3.41,2.08,3.6,3.22c0,0,6.63-3.79,9.85-3.22c0,0,7.96-17.43,13.64-32.02c0,0,4.36-7.01,5.12-14.78
				l1.33,3.03c0,0,5.68-6.44-1.33-17.81C326.69,262.2,324.22,261.63,324.03,263.9z"/>
			<path class="st3" d="M25.51,156.72c-0.5,0.26-1.52,0.22-1.57,0.78c-0.05,0.6,2.12,4.08,2.35,4.7c0.21,0.57,1.16,1.94,1.57,2.35
				c0.41,0.41,0.97,1.5,1.57,1.57c0.79,0.09,0.76,0.12,1.57,0c0.57-0.08,1.04,0.4,1.61,0.51c0.62,0.11,1.76,0.43,2.03,1.07
				c0.27,0.64-0.27,1.85-0.43,2.78c-0.18,1.01-0.68,2.22-0.64,3.31c0.03,1.09,0.12,2.38,0.85,3.21c0.91,1.03,2.88,2.37,4.59,2.99
				c1.91,0.69,4.53,1.22,6.84,1.18c2.74-0.05,7.18-0.84,9.62-1.5c1.8-0.49,3.78-0.92,5.52-1.6c1.87-0.73,4.17-1.51,5.63-1.85
				c0.82-0.19,1.75-1.03,2.59-1.05l0,0c2.04-0.04,5.37-5.4,8.61-5.4c3.96,0,16.62-14.35,19.25-10.78
				c4.24,5.77,17.36,1.36,23.15,4.43c5.74,3.04,17.96,4.93,23.75,1.98c10.51-5.36,19.99,22.79,23.45,12.13
				c3.46-10.66-19.69-29.75-23.88-38.31c-1.92-3.92-2.62-8.91-1.22-13.04c2.65-7.81,16.96-21.19,17.12-33.83
				c1.46-120.01-127.69-58.09-137-22.15c-2.02,7.77-4.13,11.85-4.52,16.77c-0.28,3.51,1.46,9.91,2.18,12.78
				c0.59,2.34,0.53,5.17,1,7.18c0.4,1.68,1.37,3.18,1.84,4.84c0.47,1.7,1.06,3.76,1,5.34c-0.05,1.46-0.78,2.82-1.34,4.17
				c-0.67,1.61-1.7,4.01-2.67,5.51c-0.86,1.32-2.42,2.42-3.17,3.51c-0.62,0.9-1.17,2.12-1.34,3c-0.15,0.77-0.18,1.75,0.33,2.34
				c0.58,0.67,2.12,1.09,3.17,1.67c1.11,0.61,2.45,1.42,3.51,2c0.94,0.52,2.45,0.53,2.84,1.51c0.39,0.97,0.11,3.02-0.5,4.34
				c-0.61,1.34-0.95,4.21-1.6,5.3c-0.51,0.85-1.02,3.98-0.78,4.7c0.24,0.73,1.53,1.29,2.35,1.57"/>
			<g>
				<path class="st4" d="M186.73,105.62c3.72-0.53,7.49-0.89,11.3-1.06c0.53,0,1.06,0,1.6,0s1.06,0,1.6,0
					c8.42,0,16.49,1.55,24.2,4.65c7.71,3.1,13.87,8.91,18.48,17.42c2.84,3.28,4.81,6.94,5.92,10.97c1.11,4.03,1.66,8.18,1.66,12.43
					c0,1.15-0.02,2.28-0.07,3.39c-0.05,1.11-0.16,2.24-0.33,3.39c-0.35,3.72-0.95,7.43-1.79,11.1c-0.84,3.68-1.71,7.11-2.59,10.31
					c-0.09,0.27-0.16,0.51-0.2,0.73c-0.05,0.22-0.11,0.42-0.2,0.6c-3.81,6.3-8.78,12.06-14.89,17.29
					c-6.12,5.23-12.9,8.24-20.34,9.04c-9.93-0.18-19.41-1.17-28.46-2.99c-9.04-1.82-16.58-6.8-22.61-14.96
					c-4.61-4.34-7.93-9.37-9.97-15.09c-2.04-5.72-3.15-11.59-3.32-17.62c0-0.27,0-0.51,0-0.73c0-0.22,0-0.42,0-0.6
					c0-2.3,0.11-4.56,0.33-6.78c0.22-2.22,0.55-4.39,1-6.52c2.13-7.18,5.56-13.67,10.31-19.48c4.74-5.81,10.62-10.31,17.62-13.5
					C179.42,106.82,183.01,106.15,186.73,105.62z M219.71,122.31c-4.08-2.35-8.47-4.06-13.16-5.12c-1.42-0.27-2.81-0.47-4.19-0.6
					c-1.38-0.13-2.77-0.2-4.19-0.2c-4.08,0-8.02,0.64-11.83,1.93c-3.81,1.29-7.27,3.26-10.37,5.92c-4.97,3.81-8.76,8.53-11.37,14.16
					c-2.62,5.63-3.92,11.59-3.92,17.88c0,0.71,0.02,1.44,0.07,2.19c0.04,0.75,0.11,1.49,0.2,2.19c0,0.8,0.07,1.58,0.2,2.33
					c0.13,0.75,0.29,1.49,0.47,2.19c2.39,7.54,6.69,13.74,12.9,18.62c6.2,4.88,13.16,7.8,20.88,8.78c0.71,0.09,1.42,0.13,2.13,0.13
					c0.71,0,1.37,0,1.99,0c8.15,0,15.58-2.06,22.27-6.18c6.69-4.12,11.86-9.86,15.49-17.22c0.62-2.21,1.08-4.48,1.4-6.78
					c0.31-2.3,0.47-4.65,0.47-7.05c0-4.43-0.62-8.71-1.86-12.83c-1.24-4.12-3.24-7.82-5.98-11.1
					C227.64,127.74,223.79,124.66,219.71,122.31z M217.05,124.64c3.46,2.22,6.56,4.65,9.31,7.31c0.27,0.18,0.51,0.38,0.73,0.6
					c0.22,0.22,0.42,0.42,0.6,0.6c2.48,3.28,4.41,6.96,5.78,11.04c1.37,4.08,2.06,8.24,2.06,12.5c0,0.71-0.05,1.44-0.13,2.19
					c-0.09,0.75-0.18,1.49-0.27,2.19c-0.09,0.8-0.2,1.58-0.33,2.33c-0.13,0.75-0.29,1.49-0.47,2.19
					c-1.86,6.12-5.43,11.19-10.7,15.23c-5.28,4.03-10.93,6.63-16.95,7.78c-0.44,0.09-0.91,0.18-1.4,0.27
					c-0.49,0.09-1,0.18-1.53,0.27c-0.09,0-0.2,0-0.33,0c-0.13,0-0.25,0-0.33,0c-0.18,0-0.31,0-0.4,0c-0.09,0-0.22,0-0.4,0
					c-0.62,0-1.26-0.02-1.93-0.07c-0.67-0.04-1.31-0.07-1.93-0.07c-6.21-0.53-12.12-2.35-17.75-5.45c-5.63-3.1-10-7.62-13.1-13.56
					c-1.15-2.04-1.97-4.23-2.46-6.58c-0.49-2.35-0.73-4.76-0.73-7.25c0-0.35,0-0.73,0-1.13s0.04-0.82,0.13-1.26
					c0.18-3.28,0.8-6.52,1.86-9.71c1.06-3.19,2.48-6.03,4.26-8.51c3.9-4.79,8.2-8.6,12.9-11.44c4.7-2.84,9.93-4.25,15.69-4.25
					c0.35,0,0.73,0,1.13,0s0.77,0.05,1.13,0.13c0.71,0,1.44,0.05,2.19,0.13c0.75,0.09,1.53,0.22,2.33,0.4
					C209.91,121.05,213.59,122.42,217.05,124.64z M212.2,135.94c-3.86-2.3-7.91-3.59-12.17-3.86c-0.18,0-0.38,0-0.6,0
					c-0.22,0-0.47,0-0.73,0c-2.75,0-5.39,0.47-7.91,1.4c-2.53,0.93-4.81,2.33-6.85,4.19c-2.31,2.22-4.12,4.74-5.45,7.58
					c-1.33,2.84-1.99,5.85-1.99,9.04c0,0.89,0.07,1.84,0.2,2.86c0.13,1.02,0.33,2.02,0.6,2.99c2.22,4.17,5.27,8.02,9.18,11.57
					c3.9,3.55,8.16,5.5,12.77,5.85c3.63-0.18,7-1.11,10.11-2.79c3.1-1.68,5.98-3.77,8.64-6.25c1.77-1.68,3.04-3.68,3.79-5.98
					c0.75-2.3,1.13-4.7,1.13-7.18c0-1.77-0.16-3.52-0.47-5.25c-0.31-1.73-0.82-3.35-1.53-4.85
					C218.96,141.35,216.05,138.25,212.2,135.94z"/>
			</g>
			<g>
				<path class="st4" d="M263.51,265.73c3.32,8.32,6.9,17.67,10.73,28.06c0.32,0.72,0.62,1.46,0.9,2.22
					c0.28,0.76,0.54,1.5,0.78,2.22c3.84,10.4,7.27,20.05,10.31,28.96c3.04,8.92,4.64,14.25,4.8,16.01h-29.38
					c-0.64-0.72-1.24-1.54-1.8-2.46c-0.56-0.92-1.04-1.82-1.44-2.7c-0.8-1.92-1.56-4.44-2.28-7.56c-1.68,0.32-3.58,0.52-5.7,0.6
					c-2.12,0.08-4.3,0.12-6.54,0.12c-0.16,0-0.32,0-0.48,0c-0.16,0-0.32,0-0.48,0c-1.28,0-2.56-0.02-3.84-0.06
					c-1.28-0.04-2.52-0.06-3.72-0.06c-1.28,0-2.54-0.02-3.78-0.06c-1.24-0.04-2.34-0.06-3.3-0.06c-0.32,0-0.64,0-0.96,0
					c-0.32,0-0.64,0-0.96,0c-0.32,0.56-0.62,1.38-0.9,2.46c-0.28,1.08-0.62,2.18-1.02,3.3c-0.48,1.76-1.02,3.34-1.62,4.74
					c-0.6,1.4-1.26,2.02-1.98,1.86l-26.39-0.36c-0.08-0.08-0.14-0.2-0.18-0.36c-0.04-0.16-0.06-0.36-0.06-0.6
					c0-2.48,1.94-8.7,5.82-18.65c3.88-9.95,8.17-20.65,12.89-32.08c2.88-7.2,5.7-14.19,8.46-20.99c2.76-6.79,5.02-12.67,6.78-17.63
					c1.36,0.08,3.1,0.16,5.22,0.24c2.12,0.08,4.38,0.12,6.78,0.12c0.32,0,0.64,0,0.96,0c0.32,0,0.64,0,0.96,0
					c1.52,0,3.02-0.02,4.5-0.06c1.48-0.04,2.86-0.06,4.14-0.06c1.6,0,2.96-0.02,4.08-0.06c1.12-0.04,1.92-0.06,2.4-0.06
					c0.16,0,0.32,0,0.48,0C258.25,253.09,260.19,257.41,263.51,265.73z M245.58,264.35c-0.8-0.04-1.6-0.06-2.4-0.06
					c-0.64,0-1.3-0.02-1.98-0.06c-0.68-0.04-1.42-0.22-2.22-0.54c-0.32,0.72-0.64,1.44-0.96,2.16c-0.32,0.72-0.64,1.4-0.96,2.04
					c-4.64,10.63-9.22,21.29-13.73,31.96c-4.52,10.67-8.74,21.37-12.65,32.08c0.08,0,0.16,0,0.24,0c0.08,0,0.16,0,0.24,0
					c0.32,0,0.54,0.06,0.66,0.18s0.22,0.26,0.3,0.42c0,0.08,0.02,0.16,0.06,0.24c0.04,0.08,0.06,0.16,0.06,0.24
					c0,0.08,0,0.04,0-0.12c0-0.16,0.12-0.52,0.36-1.08c0.16-0.48,0.48-1.22,0.96-2.22c0.48-1,0.96-2.06,1.44-3.18
					c0.08-0.24,0.16-0.44,0.24-0.6c0.08-0.16,0.16-0.36,0.24-0.6c0.56-1.04,1.06-1.98,1.5-2.82c0.44-0.84,0.82-1.42,1.14-1.74
					l48.93-0.36c1.12,1.76,2,3.28,2.64,4.56c0.32,0.64,0.64,1.28,0.96,1.92c0.32,0.64,0.6,1.28,0.84,1.92
					c0.16,0.56,0.32,1.12,0.48,1.68c0.16,0.56,0.28,1.08,0.36,1.56c0.4,0.32,0.82,0.44,1.26,0.36c0.44-0.08,0.9-0.44,1.38-1.08
					c-2.88-7.68-5.88-15.35-9-23.03c-3.12-7.68-6.28-15.31-9.48-22.91c-1.44-3.44-2.86-6.85-4.26-10.25
					c-1.4-3.4-2.78-6.78-4.14-10.13C247.22,264.57,246.38,264.39,245.58,264.35z M266.21,317.9h-46.06c0.96-2.72,2.16-5.9,3.6-9.54
					c1.44-3.64,2.92-7.33,4.44-11.09c0.16-0.4,0.34-0.82,0.54-1.26c0.2-0.44,0.38-0.9,0.54-1.38c2.8-6.8,6.56-15.59,11.27-26.39
					c0.24-0.64,0.58-1.04,1.02-1.2c0.44-0.16,0.9-0.2,1.38-0.12c0.16,0,0.3,0,0.42,0c0.12,0,0.22,0,0.3,0c0.24,0,0.48,0,0.72,0
					c0.24,0,0.48,0,0.72,0c0.16,0,0.3,0,0.42,0c0.12,0,0.22,0,0.3,0L266.21,317.9z M250.08,306.8c-0.36-1.24-0.74-2.54-1.14-3.9
					c-0.72-2-1.6-3.98-2.64-5.94c-1.04-1.96-2.24-3.7-3.6-5.22c-0.4,0.88-0.82,1.74-1.26,2.58c-0.44,0.84-0.9,1.7-1.38,2.58
					c-1.28,2.24-2.42,4.54-3.42,6.9c-1,2.36-1.5,4.78-1.5,7.26c0.48-0.08,0.94-0.14,1.38-0.18c0.44-0.04,0.86-0.06,1.26-0.06
					c0.72,0,1.42,0.04,2.1,0.12c0.68,0.08,1.34,0.16,1.98,0.24c0.32,0.08,0.66,0.14,1.02,0.18c0.36,0.04,0.7,0.06,1.02,0.06
					c0.32,0,0.64,0.02,0.96,0.06c0.32,0.04,0.64,0.06,0.96,0.06c0.8,0,1.62-0.08,2.46-0.24c0.84-0.16,1.7-0.44,2.58-0.84
					C250.7,309.26,250.44,308.04,250.08,306.8z"/>
			</g>
			<g>
				<path class="st4" d="M205.61,62.58c-4.12,5.36-7.86,10.91-11.2,16.67c-3.35,5.75-6.5,11.55-9.45,17.39
					c-0.86,0.21-1.71,0.35-2.55,0.44c-0.84,0.09-1.69,0.11-2.55,0.08c-0.41,0-0.82-0.01-1.21-0.03c-0.4-0.02-0.8-0.03-1.21-0.03
					c-0.21-0.03-0.41-0.05-0.62-0.05s-0.41-0.02-0.62-0.05c-0.62,0-1.23-0.02-1.83-0.05c-0.6-0.03-1.19-0.05-1.78-0.05
					c-0.62,0-1.23,0.03-1.83,0.08c-0.6,0.05-1.19,0.13-1.78,0.23l-0.52-0.57c1.03-1.51,2.06-3.02,3.09-4.53
					c1.03-1.51,2.06-3.02,3.09-4.53c0.24-0.34,0.48-0.7,0.72-1.06c0.24-0.36,0.48-0.71,0.72-1.06c2.68-3.88,5.34-7.78,7.98-11.69
					c2.64-3.92,5.15-7.9,7.52-11.95c1.34-0.14,2.71-0.26,4.12-0.36c1.41-0.1,2.82-0.19,4.22-0.26c0.55,0,1.11-0.01,1.67-0.03
					c0.57-0.02,1.12-0.03,1.67-0.03c0.45,0,0.88,0,1.31,0c0.43,0,0.87,0.02,1.31,0.05L205.61,62.58z M196.6,66.49h-1.8l-10.72,17
					c-0.31,0.55-0.64,1.06-0.98,1.55c-0.34,0.48-0.69,0.96-1.03,1.44c-0.14,0.17-0.26,0.33-0.36,0.49c-0.1,0.15-0.22,0.3-0.36,0.44
					c-0.48,0.69-0.94,1.37-1.37,2.03c-0.43,0.67-0.78,1.4-1.06,2.19c0.27,0,0.55-0.03,0.82-0.1c0.27-0.07,0.55-0.15,0.82-0.26
					c0.07-0.03,0.15-0.06,0.23-0.08c0.09-0.02,0.18-0.04,0.28-0.08L196.6,66.49z"/>
			</g>
			<g>
				<path class="st4" d="M192.05,60.96c0.45-0.03,0.88-0.05,1.31-0.05c0.43,0,0.87,0,1.31,0c0.55,0,1.11,0.01,1.67,0.03
					c0.57,0.02,1.12,0.03,1.67,0.03c1.41,0.07,2.82,0.15,4.22,0.26c1.41,0.1,2.78,0.22,4.12,0.36c2.37,4.05,4.88,8.04,7.52,11.95
					c2.64,3.92,5.31,7.81,7.98,11.69c0.24,0.34,0.48,0.7,0.72,1.06c0.24,0.36,0.48,0.71,0.72,1.06c1.03,1.51,2.06,3.02,3.09,4.53
					c1.03,1.51,2.06,3.02,3.09,4.53l-0.52,0.57c-0.58-0.1-1.18-0.18-1.78-0.23c-0.6-0.05-1.21-0.08-1.83-0.08
					c-0.58,0-1.18,0.02-1.78,0.05c-0.6,0.03-1.21,0.05-1.83,0.05c-0.21,0.03-0.41,0.05-0.62,0.05s-0.41,0.02-0.62,0.05
					c-0.41,0-0.82,0.01-1.21,0.03c-0.39,0.02-0.8,0.03-1.21,0.03c-0.86,0.03-1.71,0.01-2.55-0.08c-0.84-0.09-1.69-0.23-2.55-0.44
					c-2.95-5.84-6.1-11.63-9.45-17.39c-3.35-5.75-7.08-11.31-11.2-16.67L192.05,60.96z M216.88,90.89c0.1,0.03,0.2,0.06,0.28,0.08
					c0.09,0.02,0.16,0.04,0.23,0.08c0.28,0.1,0.55,0.19,0.82,0.26c0.28,0.07,0.55,0.1,0.82,0.1c-0.27-0.79-0.63-1.52-1.06-2.19
					c-0.43-0.67-0.88-1.35-1.37-2.03c-0.14-0.14-0.26-0.28-0.36-0.44c-0.1-0.15-0.22-0.32-0.36-0.49c-0.34-0.48-0.69-0.96-1.03-1.44
					c-0.34-0.48-0.67-1-0.98-1.55l-10.72-17h-1.8L216.88,90.89z"/>
			</g>
			<g>
				<path class="st4" d="M101.73,118.58c1.9,0.53,3.81,0.9,5.71,1.11c1.9,0.21,3.81,0.32,5.71,0.32c2.43,0,4.86-0.13,7.3-0.4
					c2.43-0.26,4.86-0.61,7.3-1.03c2.33-0.32,4.63-0.61,6.9-0.87c2.27-0.26,4.57-0.4,6.9-0.4c-0.32,1.8-0.74,3.57-1.27,5.32
					c-0.53,1.75-1.17,3.52-1.9,5.32c-0.53,1.38-1.11,2.78-1.75,4.21c-0.63,1.43-1.22,2.88-1.75,4.36c-1.17,2.54-2.25,5.1-3.25,7.7
					c-1.01,2.59-1.88,5.26-2.62,8.01l-68.87,0.48l-1.11-2.7c0.95-6.98,1.64-14.17,2.06-21.58c0.42-7.4,0.69-14.81,0.79-22.21
					c0-1.06,0-2.11,0-3.17c0-1.06,0-2.11,0-3.17c0-11.64-0.29-23.09-0.87-34.35c-0.58-11.27-1.24-21.98-1.98-32.13l1.9-1.59
					l40.78,1.59V118.58z M79.2,48.6l-0.32,88.06l38.88,0.95c0.21,0,0.42-0.02,0.63-0.08c0.21-0.05,0.48-0.13,0.79-0.24
					c0.42-0.32,0.85-0.63,1.27-0.95c0.42-0.32,0.74-0.69,0.95-1.11c0.1-0.21,0.16-0.42,0.16-0.63c0-0.21-0.05-0.42-0.16-0.63
					c-0.74-0.1-1.48-0.16-2.22-0.16c-0.74,0-1.53,0-2.38,0c-1.48,0-3.01,0.03-4.6,0.08c-1.59,0.05-3.17,0.13-4.76,0.24
					c-0.85,0-1.67,0.03-2.46,0.08c-0.79,0.05-1.61,0.08-2.46,0.08c-0.85,0.11-1.67,0.16-2.46,0.16c-0.79,0-1.61,0-2.46,0
					c-2.33,0-4.55-0.1-6.66-0.32c-2.12-0.21-4.18-0.53-6.19-0.95c-0.11-2.96-0.21-5.98-0.32-9.04c-0.11-3.07-0.16-6.19-0.16-9.36
					c0-3.17,0.02-6.37,0.08-9.6c0.05-3.23,0.13-6.48,0.24-9.76c0-2.01,0-3.99,0-5.95c0-1.96,0.05-3.94,0.16-5.95
					c0-1.37,0-2.72,0-4.05c0-1.32,0-2.62,0-3.89c0-4.65-0.08-9.23-0.24-13.73c-0.16-4.5-0.45-8.91-0.87-13.25H79.2z"/>
			</g>
			<g>
				<path class="st4" d="M139.07,216.7c1.84,0.16,3.68,0.24,5.52,0.24c2.08,0,4.2-0.06,6.36-0.18c2.16-0.12,4.36-0.3,6.6-0.54
					c2.16-0.16,4.32-0.3,6.48-0.42c2.16-0.12,4.28-0.18,6.36-0.18c5.36,0,10.37,0.76,15.05,2.28c4.68,1.52,8.61,4.72,11.81,9.6
					c0.24,0.32,0.5,0.62,0.78,0.9c0.28,0.28,0.54,0.58,0.78,0.9c0.4,0.4,0.78,0.8,1.14,1.2c0.36,0.4,0.74,0.8,1.14,1.2
					c1.68,1.76,3.24,3.6,4.68,5.52c1.44,1.92,2.12,4,2.04,6.24c0,0.8-0.1,1.64-0.3,2.52c-0.2,0.88-0.58,1.76-1.14,2.64l-11.15,15.11
					c0.72,1.2,1.58,2.38,2.58,3.54c1,1.16,2.02,2.3,3.06,3.42c0.08,0.08,0.14,0.16,0.18,0.24c0.04,0.08,0.1,0.16,0.18,0.24
					c1.92,2,3.68,4.06,5.28,6.18c1.6,2.12,2.4,4.46,2.4,7.02c0,0.8-0.1,1.64-0.3,2.52c-0.2,0.88-0.5,1.76-0.9,2.64
					c-3.2,7.36-7.62,12.17-13.25,14.45c-5.64,2.28-11.81,3.42-18.53,3.42c-2.72,0-5.46-0.1-8.22-0.3c-2.76-0.2-5.54-0.42-8.34-0.66
					c-2.88-0.24-5.7-0.48-8.46-0.72c-2.76-0.24-5.5-0.36-8.22-0.36c-1.6,0-3.16,0.06-4.68,0.18c-1.52,0.12-3.04,0.3-4.56,0.54
					l-1.8-2.64l1.2-87.07l0.96-0.36C135.48,216.3,137.23,216.54,139.07,216.7z M170.44,225.58c-3.4-0.48-6.82-0.72-10.25-0.72
					c-2.4,0-4.82,0.14-7.26,0.42c-2.44,0.28-4.9,0.74-7.38,1.38v68.24c1.68,0,3.38,0.04,5.1,0.12c1.72,0.08,3.42,0.12,5.1,0.12
					c1.76,0.08,3.48,0.16,5.16,0.24c1.68,0.08,3.36,0.12,5.04,0.12c3.2,0,6.32-0.18,9.35-0.54c3.04-0.36,6-1.06,8.88-2.1
					c2.08-0.64,3.8-1.86,5.16-3.66c1.36-1.8,2.2-3.7,2.52-5.7c0-0.24,0.02-0.46,0.06-0.66c0.04-0.2,0.06-0.42,0.06-0.66
					c-0.4-3.04-1.62-5.94-3.66-8.7c-2.04-2.76-4.26-5.26-6.66-7.5c-0.96-0.88-1.92-1.72-2.88-2.52c-0.96-0.8-1.84-1.52-2.64-2.16
					c3.36-1.04,6.4-2.78,9.12-5.22c2.72-2.44,4.96-5.22,6.72-8.34c0.16-0.56,0.26-1.08,0.3-1.56c0.04-0.48,0.06-0.96,0.06-1.44
					c0-2.4-0.72-4.52-2.16-6.36c-1.44-1.84-3-3.64-4.68-5.4c-0.16-0.08-0.28-0.18-0.36-0.3c-0.08-0.12-0.16-0.22-0.24-0.3
					c-0.8-0.8-1.58-1.6-2.34-2.4c-0.76-0.8-1.42-1.64-1.98-2.52C177.21,226.7,173.83,226.06,170.44,225.58z M151.61,228.34
					c0.76,0.08,1.54,0.12,2.34,0.12c1.12,0,2.26-0.04,3.42-0.12c1.16-0.08,2.34-0.16,3.54-0.24c1.2-0.08,2.38-0.16,3.54-0.24
					c1.16-0.08,2.3-0.12,3.42-0.12c2.72,0,5.3,0.36,7.74,1.08c2.44,0.72,4.54,2.24,6.3,4.56c0.32,0.4,0.66,0.78,1.02,1.14
					s0.74,0.78,1.14,1.26c1.28,1.36,2.44,2.84,3.48,4.44c1.04,1.6,1.56,3.24,1.56,4.92c0,0.24-0.02,0.46-0.06,0.66
					c-0.04,0.2-0.06,0.42-0.06,0.66c-0.08,0.24-0.16,0.46-0.24,0.66c-0.08,0.2-0.16,0.42-0.24,0.66c-1.28,2.4-2.92,4.62-4.92,6.66
					c-2,2.04-4.28,3.66-6.84,4.86c-1.6,0.16-3.2,0.3-4.8,0.42c-1.6,0.12-3.2,0.18-4.8,0.18c-0.8,0.08-1.6,0.12-2.4,0.12
					c-0.8,0-1.6,0-2.4,0c-2.24,0-4.54-0.06-6.9-0.18c-2.36-0.12-4.78-0.3-7.26-0.54l1.08-31.18
					C150.07,228.18,150.85,228.26,151.61,228.34z M150.95,262.52c0.8,0,1.6,0,2.4,0c1.44,0,2.88,0.02,4.32,0.06
					c1.44,0.04,2.92,0.1,4.44,0.18c5.12,0.4,10.03,1.52,14.75,3.36c4.72,1.84,8.2,5.48,10.43,10.91c0.4,0.8,0.74,1.68,1.02,2.64
					c0.28,0.96,0.42,1.96,0.42,3c0,0.64-0.1,1.28-0.3,1.92c-0.2,0.64-0.58,1.24-1.14,1.8c-2.72,2.56-5.8,4.28-9.23,5.16
					c-3.44,0.88-7.04,1.32-10.79,1.32c-0.72,0-1.44-0.02-2.16-0.06c-0.72-0.04-1.44-0.06-2.16-0.06c-1.28-0.08-2.56-0.18-3.84-0.3
					c-1.28-0.12-2.56-0.22-3.84-0.3c-1.2-0.08-2.4-0.18-3.6-0.3c-1.2-0.12-2.36-0.22-3.48-0.3l0.48-29.02
					C149.39,262.52,150.15,262.52,150.95,262.52z M169.42,237.09c-1.68-0.48-3.44-0.72-5.28-0.72c-0.4,0-0.84,0.02-1.32,0.06
					c-0.48,0.04-0.96,0.1-1.44,0.18c-0.08,0.24-0.16,0.5-0.24,0.78c-0.08,0.28-0.16,0.58-0.24,0.9c-0.16,0.64-0.32,1.32-0.48,2.04
					c-0.16,0.72-0.32,1.44-0.48,2.16c-0.08,0.56-0.14,1.1-0.18,1.62c-0.04,0.52-0.06,1.02-0.06,1.5c0,1.04,0.14,2.02,0.42,2.94
					c0.28,0.92,0.7,1.82,1.26,2.7c0.72,0.08,1.44,0.14,2.16,0.18c0.72,0.04,1.44,0.02,2.16-0.06c2.08,0,4.04-0.3,5.88-0.9
					c1.84-0.6,3.36-1.9,4.56-3.9c0.08-0.4,0.12-0.82,0.12-1.26c0-0.44,0-0.82,0-1.14c0-0.96-0.14-1.86-0.42-2.7
					c-0.28-0.84-0.86-1.58-1.74-2.22C172.66,238.29,171.1,237.57,169.42,237.09z M170.44,272.41c-2.44-1.4-5.14-2.1-8.1-2.1
					c-0.08,0-0.2,0-0.36,0c-0.16,0-0.28,0-0.36,0c-0.16,0.08-0.3,0.12-0.42,0.12c-0.12,0-0.26,0-0.42,0
					c-0.32,0.96-0.58,2.04-0.78,3.24c-0.2,1.2-0.3,2.44-0.3,3.72c0,1.2,0.1,2.38,0.3,3.54c0.2,1.16,0.46,2.26,0.78,3.3
					c0.4,0.08,0.76,0.14,1.08,0.18c0.32,0.04,0.64,0.06,0.96,0.06c0.88,0,1.72-0.1,2.52-0.3c0.8-0.2,1.6-0.42,2.4-0.66
					c0.16-0.08,0.3-0.14,0.42-0.18c0.12-0.04,0.26-0.06,0.42-0.06c0.64-0.24,1.32-0.42,2.04-0.54s1.44-0.18,2.16-0.18
					c0.16,0,0.3,0,0.42,0c0.12,0,0.22,0,0.3,0c0.16-0.08,0.36-0.2,0.6-0.36c0.24-0.16,0.48-0.32,0.72-0.48
					c0.48-0.32,0.94-0.7,1.38-1.14c0.44-0.44,0.62-0.9,0.54-1.38c0-0.24-0.04-0.48-0.12-0.72c-0.08-0.24-0.24-0.48-0.48-0.72
					C174.77,275.59,172.87,273.81,170.44,272.41z"/>
			</g>
			<g>
				<path class="st4" d="M299.07,170.23c-0.27,1.24-0.53,2.51-0.8,3.79c-0.27,1.29-0.53,2.55-0.8,3.79
					c-0.53,2.48-1.04,4.99-1.53,7.51c-0.49,2.53-1.04,5.08-1.66,7.65l-1.6,1.2l-42.02,0.67l-0.93-1.86l10.9-24.73l37.5,0.27
					L299.07,170.23z M282.91,179.21c-1.38-0.22-2.82-0.33-4.32-0.33c-0.62,0-1.24,0-1.86,0c-0.62,0-1.24,0.05-1.86,0.13
					c-0.18,0-0.36,0-0.53,0c-0.18,0-0.31,0-0.4,0c-0.8,0-1.6,0.02-2.39,0.07c-0.8,0.05-1.55,0.07-2.26,0.07c-0.18,0-0.38,0-0.6,0
					c-0.22,0-0.42,0-0.6,0c-0.44,0.09-0.84,0.31-1.2,0.66c-0.36,0.36-0.53,0.84-0.53,1.46c0,0.09,0,0.18,0,0.27
					c0,0.09,0,0.18,0,0.27c0.71-0.09,1.44-0.13,2.19-0.13c0.75,0,1.48,0,2.19,0c0.62,0,1.24,0,1.86,0c0.62,0,1.24,0,1.86,0
					c0.53,0.09,1.11,0.13,1.73,0.13c0.62,0,1.24,0,1.86,0c1.51,0,2.97-0.09,4.39-0.27c1.42-0.18,2.79-0.49,4.12-0.93
					C285.5,179.89,284.29,179.43,282.91,179.21z"/>
			</g>
		</g>
	</g>
</g>
</svg>
